<svg width="204" height="208" viewBox="0 0 204 208" fill="none" xmlns="http://www.w3.org/2000/svg">
<path d="M44.4977 189.296L23.0981 199.203C22.6656 199.388 22.1863 199.398 21.7474 199.232C21.3085 199.066 20.9392 198.734 20.7066 198.298L11.3861 180.437C10.7472 179.212 11.0455 177.821 12.064 177.35L37.5873 165.534C38.6057 165.063 39.7382 165.792 40.1115 167.139L45.5489 186.795C45.6791 187.28 45.6446 187.799 45.4517 188.258C45.2587 188.717 44.9201 189.085 44.4977 189.296Z" fill="#F9CC00"/>
<path d="M40.3492 162.839L8.35178 177.652C8.02091 177.806 7.86714 178.221 8.00834 178.58L10.3932 184.642C10.5344 185.001 10.9171 185.168 11.248 185.015L43.2455 170.202C43.5763 170.049 43.7301 169.634 43.5889 169.275L41.204 163.212C41.0628 162.853 40.6801 162.686 40.3492 162.839Z" fill="white"/>
<path d="M11.7109 185.002C11.2472 185.001 10.7939 184.853 10.4072 184.575C10.0204 184.298 9.71715 183.904 9.53499 183.441L8.21197 180.079C7.96669 179.453 7.96051 178.746 8.19479 178.115C8.42908 177.484 8.88467 176.979 9.46158 176.712L38.968 163.051C39.5456 162.784 40.197 162.777 40.7793 163.031C41.3616 163.286 41.827 163.78 42.0733 164.406L43.3948 167.768C43.5167 168.078 43.581 168.412 43.5842 168.749C43.5873 169.086 43.5292 169.42 43.4132 169.733C43.2971 170.046 43.1254 170.33 42.9078 170.571C42.6903 170.812 42.4311 171.003 42.1452 171.135L12.6387 184.797C12.3454 184.932 12.0297 185.002 11.7109 185.002ZM39.8928 163.629C39.6716 163.629 39.4527 163.677 39.2492 163.771L9.74274 177.432C9.34178 177.618 9.02529 177.97 8.86275 178.409C8.70022 178.848 8.70492 179.339 8.87582 179.774L10.1988 183.136C10.3701 183.571 10.6935 183.914 11.098 184.091C11.5025 184.267 11.9549 184.262 12.356 184.077L41.8625 170.415C42.0611 170.323 42.2411 170.19 42.3921 170.023C42.5432 169.855 42.6624 169.657 42.7429 169.44C42.8234 169.223 42.8637 168.99 42.8614 168.756C42.859 168.522 42.8142 168.291 42.7294 168.075L41.4142 164.711C41.2867 164.389 41.0745 164.114 40.8039 163.921C40.5333 163.729 40.2164 163.627 39.8928 163.629Z" fill="#151515"/>
<path d="M15.4072 153.977L23.8132 175.346C23.9781 175.766 24.4251 175.96 24.8115 175.782L27.725 174.433C28.1114 174.254 28.291 173.769 28.1261 173.35L19.7201 151.981C19.5552 151.561 19.1083 151.367 18.7219 151.545L15.8083 152.894C15.4219 153.073 15.2423 153.558 15.4072 153.977Z" fill="#A06ECE"/>
<path d="M196.096 147.33C196.033 147.298 195.98 147.267 195.923 147.237C192.877 145.498 182.011 135.668 174.292 130.881C171.616 129.221 172.208 122.371 185.099 119.631C185.971 119.448 186.894 119.282 187.881 119.135C187.881 119.135 200.816 126.27 203.141 136.1C205.426 145.749 199.211 148.865 196.096 147.33Z" fill="#A06ECE"/>
<path d="M189.649 141.306C189.59 141.306 189.532 141.29 189.479 141.259C189.427 141.229 189.382 141.185 189.349 141.131C189.316 141.078 189.296 141.016 189.291 140.952C189.285 140.888 189.294 140.823 189.317 140.763C190.37 138.03 191.56 136.507 192.097 135.907C189.312 133.116 180.412 127.209 180.32 127.146C180.278 127.12 180.241 127.085 180.212 127.044C180.183 127.002 180.162 126.954 180.151 126.904C180.139 126.853 180.136 126.801 180.143 126.749C180.151 126.697 180.167 126.648 180.192 126.603C180.218 126.559 180.251 126.52 180.29 126.49C180.329 126.459 180.373 126.437 180.42 126.426C180.467 126.414 180.516 126.413 180.563 126.422C180.61 126.431 180.656 126.45 180.696 126.479C181.091 126.74 190.38 132.918 192.88 135.629C192.915 135.667 192.942 135.713 192.96 135.764C192.978 135.814 192.986 135.868 192.984 135.922C192.982 135.976 192.969 136.029 192.947 136.077C192.925 136.126 192.894 136.169 192.856 136.204C192.841 136.217 191.294 137.668 189.988 141.062C189.961 141.135 189.914 141.197 189.854 141.24C189.793 141.284 189.722 141.307 189.649 141.306Z" fill="#151515"/>
<path d="M196.096 147.331C199.047 146.36 201.216 144.245 201.14 140.106C200.938 129.625 188.989 121.871 185.101 119.627C185.972 119.444 186.896 119.278 187.883 119.131C187.883 119.131 200.818 126.267 203.142 136.096C205.426 145.75 199.211 148.866 196.096 147.331Z" fill="white"/>
<path d="M197.783 148.095C197.15 148.101 196.524 147.96 195.946 147.681C195.879 147.648 195.824 147.594 195.786 147.526C195.749 147.457 195.731 147.378 195.736 147.299C195.741 147.22 195.768 147.144 195.814 147.082C195.859 147.02 195.921 146.974 195.991 146.951C199.232 145.885 200.843 143.582 200.777 140.108C200.579 129.772 188.593 122.084 184.93 119.972C184.864 119.935 184.811 119.875 184.777 119.803C184.743 119.731 184.731 119.649 184.742 119.569C184.753 119.489 184.787 119.414 184.838 119.356C184.89 119.297 184.957 119.257 185.03 119.242C185.935 119.052 186.877 118.885 187.831 118.742C187.904 118.731 187.978 118.744 188.044 118.781C188.578 119.076 201.15 126.112 203.489 135.999C204.976 142.269 202.881 145.319 201.5 146.575C200.461 147.534 199.147 148.071 197.783 148.095ZM197.286 147.276C198.536 147.432 199.951 146.965 201.035 145.975C202.284 144.838 204.176 142.054 202.787 136.194C200.637 127.098 189.01 120.221 187.812 119.535C187.256 119.62 186.705 119.705 186.163 119.813C190.665 122.553 201.302 130.084 201.496 140.093C201.564 143.553 200.148 145.965 197.286 147.281V147.276Z" fill="#151515"/>
<path d="M167.794 129.904L175.674 126.379C175.674 126.379 177.8 127.314 178.161 130.446L171.043 135.645L167.794 129.904Z" fill="white"/>
<path d="M171.041 136.036C171.015 136.036 170.99 136.033 170.965 136.028C170.918 136.017 170.873 135.997 170.833 135.968C170.794 135.939 170.76 135.902 170.733 135.858L167.484 130.115C167.457 130.067 167.439 130.013 167.433 129.956C167.427 129.9 167.432 129.843 167.448 129.789C167.465 129.735 167.491 129.685 167.527 129.644C167.563 129.602 167.606 129.569 167.655 129.548L175.535 126.023C175.623 125.984 175.721 125.984 175.808 126.023C175.902 126.066 178.134 127.084 178.517 130.405C178.525 130.477 178.515 130.55 178.487 130.616C178.46 130.681 178.416 130.738 178.361 130.778L171.243 135.977C171.182 136.018 171.112 136.038 171.041 136.036ZM168.322 130.09L171.152 135.092L177.77 130.259C177.428 127.989 176.08 127.048 175.662 126.808L168.322 130.09Z" fill="#151515"/>
<path d="M172.102 141.411C172.102 141.411 165.293 147.811 158.117 151.71C154.845 153.485 151.496 154.744 148.685 154.633C147.15 154.571 145.093 153.84 142.675 152.6C130.96 146.606 110.953 128.8 102.97 119.131C101.082 116.847 99.4175 114.356 98.0043 111.698C92.6388 101.642 91.8781 90.9904 96.069 86.9422C99.5336 83.6006 104.332 85.4646 109.624 89.484C113.148 92.1528 116.892 95.7859 120.608 99.463C129.918 108.695 154.701 131.151 154.701 131.151L165.769 127.762C174.83 129.837 172.102 141.411 172.102 141.411Z" fill="#F9CC00"/>
<path d="M110.992 97.8058L98.0043 111.701C92.6388 101.642 91.8781 90.9904 96.069 86.9422C99.5336 83.6006 104.332 85.4646 109.624 89.484L110.992 97.8058Z" fill="#151515"/>
<path d="M158.119 151.711C154.846 153.485 151.497 154.744 148.687 154.634C147.152 154.572 145.094 153.841 142.676 152.601C142.533 149.422 145.188 145.355 150.174 145.026C156.285 144.621 158.195 148.981 158.119 151.711Z" fill="#A06ECE"/>
<path d="M151.492 140.809C151.442 140.809 151.392 140.798 151.346 140.775C135.351 132.998 102.606 98.6156 102.276 98.2767C102.242 98.2408 102.215 98.1981 102.196 98.1508C102.178 98.1036 102.168 98.0528 102.167 98.0014C102.166 97.9499 102.175 97.8988 102.192 97.851C102.21 97.8031 102.236 97.7595 102.269 97.7226C102.302 97.6856 102.341 97.6561 102.385 97.6357C102.428 97.6153 102.475 97.6043 102.522 97.6036C102.57 97.6028 102.617 97.6121 102.661 97.6311C102.705 97.6501 102.745 97.6783 102.779 97.7141C103.106 98.053 135.582 132.157 151.514 139.991L165.455 134.95C165.546 134.917 165.645 134.925 165.731 134.971C165.817 135.018 165.882 135.099 165.912 135.198C165.942 135.297 165.935 135.404 165.892 135.497C165.849 135.59 165.774 135.661 165.683 135.694L151.608 140.777C151.571 140.795 151.532 140.806 151.492 140.809Z" fill="#151515"/>
<path d="M169.718 142.235H169.678C169.583 142.222 169.498 142.169 169.439 142.087C169.381 142.006 169.354 141.903 169.365 141.801C170.396 132.046 165.049 130.414 164.821 130.348C164.728 130.322 164.649 130.257 164.6 130.168C164.551 130.078 164.537 129.971 164.561 129.871C164.585 129.77 164.645 129.684 164.727 129.631C164.81 129.578 164.908 129.563 165.001 129.588C165.063 129.605 171.188 131.425 170.082 141.889C170.072 141.985 170.029 142.074 169.961 142.138C169.894 142.202 169.807 142.236 169.718 142.235Z" fill="#151515"/>
<path d="M155.741 189.177C155.019 201.528 151.011 208.403 146.199 207.532C145.327 207.392 144.496 207.034 143.773 206.488C141.164 204.504 140.727 200.323 140.336 196.919C139.855 192.654 136.65 175.473 136.088 172.294C135.525 169.115 136.65 164.714 139.976 164.594C142.223 164.516 146.38 165.528 149.331 166.343C151.271 166.88 152.689 167.334 152.689 167.334C152.689 167.334 156.463 176.82 155.741 189.177Z" fill="#A06ECE"/>
<path d="M140.558 192.004C140.469 192.003 140.384 191.967 140.318 191.902C140.252 191.837 140.211 191.747 140.202 191.651C140.193 191.555 140.217 191.459 140.27 191.381C140.322 191.303 140.399 191.249 140.486 191.229C142.165 190.885 143.887 190.859 145.574 191.151C146.042 185.154 144.309 170.756 144.291 170.609C144.281 170.507 144.308 170.404 144.366 170.324C144.424 170.243 144.51 170.19 144.603 170.177C144.697 170.164 144.792 170.191 144.867 170.253C144.943 170.314 144.993 170.406 145.007 170.507C145.083 171.13 146.856 185.847 146.256 191.658C146.251 191.712 146.235 191.765 146.209 191.812C146.184 191.859 146.15 191.9 146.109 191.932C146.068 191.964 146.021 191.986 145.972 191.997C145.922 192.009 145.872 192.008 145.822 191.997C145.797 191.997 143.251 191.414 140.635 191.997C140.61 192.002 140.584 192.004 140.558 192.004Z" fill="#151515"/>
<path d="M155.741 189.176C155.02 201.528 151.011 208.402 146.199 207.531C145.924 207.483 145.652 207.415 145.385 207.328C147.478 206.849 151.063 204.43 152.637 193.85C154.61 180.527 150.751 169.24 149.677 166.438C151.439 166.934 152.695 167.336 152.695 167.336C152.695 167.336 156.463 176.82 155.741 189.176Z" fill="white"/>
<path d="M147.02 208C146.725 208 146.431 207.972 146.14 207.919C145.85 207.867 145.563 207.795 145.282 207.704C145.205 207.679 145.139 207.627 145.092 207.556C145.046 207.485 145.023 207.399 145.026 207.313C145.03 207.226 145.059 207.143 145.111 207.077C145.163 207.01 145.233 206.965 145.312 206.946C147.25 206.501 150.733 204.201 152.281 193.788C154.217 180.725 150.523 169.667 149.345 166.588C149.319 166.521 149.311 166.447 149.322 166.375C149.333 166.304 149.362 166.237 149.406 166.182C149.45 166.127 149.507 166.086 149.571 166.065C149.635 166.043 149.703 166.041 149.768 166.059C151.514 166.551 152.784 166.956 152.797 166.961C152.848 166.977 152.895 167.005 152.934 167.043C152.974 167.081 153.005 167.128 153.026 167.181C153.064 167.278 156.821 176.894 156.1 189.21C155.61 197.603 153.548 203.952 150.443 206.623C149.376 207.536 148.228 208 147.02 208ZM146.771 207.209C147.906 207.28 148.987 206.87 149.996 206.004C152.941 203.462 154.904 197.327 155.382 189.154C156.038 177.918 152.919 168.989 152.428 167.661C152.102 167.559 151.314 167.322 150.282 167.017C151.688 170.914 154.831 181.527 152.995 193.914C151.674 202.795 148.898 206.048 146.771 207.207V207.209Z" fill="#151515"/>
<path d="M137.056 171.797L133.409 169.688L128.034 166.576L131.524 160.307L133.348 161.716L139.465 166.436C139.465 166.436 141.268 170.292 137.056 171.797Z" fill="white"/>
<path d="M137.056 172.189C136.997 172.19 136.939 172.174 136.886 172.144L127.862 166.923C127.819 166.898 127.781 166.863 127.751 166.822C127.72 166.78 127.698 166.733 127.685 166.681C127.672 166.63 127.668 166.577 127.675 166.524C127.682 166.471 127.698 166.421 127.723 166.375L131.213 160.106C131.239 160.059 131.273 160.019 131.313 159.988C131.354 159.957 131.4 159.935 131.449 159.924C131.497 159.913 131.548 159.913 131.596 159.924C131.645 159.935 131.691 159.957 131.732 159.989L139.671 166.118C139.719 166.155 139.757 166.204 139.784 166.26C139.817 166.331 140.596 168.031 139.956 169.714C139.531 170.832 138.592 171.657 137.167 172.166C137.132 172.18 137.094 172.188 137.056 172.189ZM128.539 166.428L137.088 171.374C138.222 170.939 138.962 170.283 139.289 169.42C139.734 168.251 139.304 167.026 139.175 166.709L131.628 160.885L128.539 166.428Z" fill="#151515"/>
<path d="M133.409 169.689L128.034 166.578L131.524 160.309L133.348 161.718C134.098 164.31 134.119 167.085 133.409 169.689Z" fill="#151515"/>
<path d="M114.799 107.128C114.772 107.127 114.746 107.124 114.719 107.118L112.017 106.467C111.957 106.453 111.902 106.422 111.856 106.378C111.81 106.334 111.775 106.279 111.755 106.216L109.106 98.123C109.09 98.0745 109.083 98.0231 109.085 97.9716C109.088 97.9202 109.099 97.8698 109.12 97.8233C109.14 97.7768 109.169 97.7351 109.204 97.7006C109.239 97.6661 109.28 97.6395 109.325 97.6223C109.37 97.605 109.417 97.5975 109.465 97.6001C109.512 97.6028 109.558 97.6155 109.601 97.6376C109.644 97.6597 109.683 97.6908 109.714 97.729C109.746 97.7672 109.771 97.8118 109.787 97.8603L112.367 105.748L114.879 106.353C114.967 106.373 115.044 106.428 115.097 106.507C115.149 106.586 115.173 106.683 115.163 106.78C115.153 106.876 115.11 106.966 115.043 107.03C114.976 107.094 114.889 107.129 114.799 107.128Z" fill="#151515"/>
<path d="M136.936 116.396C133.206 127.229 122.253 146.805 122.253 146.805L132.961 157.377C134.645 170.037 125.502 172.907 125.502 172.907C125.502 172.907 113.787 166.09 107.303 161.511C105.715 160.39 104.44 159.402 103.728 158.682C100.821 155.736 99.2385 152.031 100.307 145.583C100.609 143.828 101.026 142.099 101.557 140.409C104.563 130.622 114.79 106.738 114.79 106.738C114.79 106.738 107.577 86.9997 113.948 82.2025C121.407 76.5902 132.956 88.3367 135.843 93.5558C138.729 98.775 140.665 105.563 136.936 116.396Z" fill="#F9CC00"/>
<path d="M126.075 140.13C126.012 140.13 125.95 140.112 125.895 140.078C125.84 140.044 125.795 139.994 125.763 139.935C125.732 139.876 125.715 139.808 125.715 139.74C125.715 139.671 125.731 139.604 125.763 139.544C129.462 132.536 134.343 122.804 136.599 116.255C140.472 105.005 138.07 98.3197 135.544 93.7547C133.635 90.3046 127.086 82.8843 120.593 81.3677C118.112 80.7898 115.95 81.1779 114.165 82.52C108.1 87.0952 115.066 106.396 115.136 106.582C115.154 106.632 115.163 106.684 115.162 106.737C115.16 106.79 115.149 106.842 115.129 106.891C115.097 106.962 112.016 114.167 108.779 122.175C108.761 122.224 108.735 122.269 108.701 122.306C108.667 122.344 108.626 122.373 108.581 122.394C108.536 122.414 108.488 122.424 108.44 122.423C108.391 122.423 108.343 122.411 108.299 122.39C108.254 122.369 108.214 122.339 108.181 122.3C108.148 122.262 108.122 122.217 108.105 122.168C108.088 122.118 108.081 122.066 108.083 122.013C108.085 121.961 108.097 121.909 108.118 121.862C111.097 114.489 113.946 107.797 114.409 106.713C113.687 104.691 107.456 86.6105 113.752 81.8676C115.71 80.395 118.062 79.968 120.744 80.5933C127.45 82.1777 134.198 89.803 136.163 93.3615C138.771 98.0774 141.255 104.976 137.273 116.539C135.002 123.138 130.101 132.908 126.389 139.944C126.356 140.002 126.31 140.05 126.255 140.082C126.2 140.115 126.138 140.132 126.075 140.13Z" fill="#151515"/>
<path d="M114.799 107.128C114.728 107.128 114.659 107.105 114.6 107.062C114.541 107.02 114.495 106.959 114.468 106.888C114.44 106.818 114.433 106.74 114.446 106.664C114.459 106.588 114.492 106.519 114.542 106.464C114.652 106.342 117.316 103.436 123.634 100.824C123.678 100.806 123.726 100.797 123.773 100.799C123.82 100.801 123.867 100.812 123.91 100.833C123.953 100.854 123.992 100.884 124.025 100.922C124.057 100.959 124.083 101.003 124.099 101.051C124.116 101.099 124.124 101.151 124.123 101.202C124.121 101.253 124.111 101.304 124.091 101.351C124.072 101.398 124.044 101.44 124.01 101.475C123.975 101.511 123.934 101.538 123.89 101.556C117.739 104.098 115.084 106.979 115.057 107.011C115.023 107.048 114.983 107.078 114.939 107.098C114.895 107.118 114.847 107.128 114.799 107.128Z" fill="#151515"/>
<path d="M110.59 159.27C109.652 160.602 108.501 161.304 107.309 161.51C105.721 160.389 104.446 159.401 103.734 158.681C100.827 155.735 99.2446 152.03 100.313 145.582C101.039 144.147 102.131 143.148 103.671 143.018C111.253 142.366 114.14 154.243 110.59 159.27Z" fill="#A06ECE"/>
<path d="M127.794 158.157C127.72 158.157 127.648 158.132 127.587 158.086L113.873 147.646C113.807 147.595 113.758 147.523 113.734 147.439C113.711 147.355 113.714 147.265 113.743 147.183C117.292 137.25 130.382 103.823 131.478 101.026C129.148 96.8997 122.43 89.4692 122.361 89.3929C122.294 89.3188 122.257 89.2187 122.257 89.1148C122.258 89.0109 122.297 88.9116 122.366 88.8388C122.434 88.766 122.526 88.7256 122.622 88.7266C122.718 88.7275 122.809 88.7697 122.876 88.8439C123.162 89.1591 129.905 96.6251 132.192 100.795C132.221 100.848 132.238 100.908 132.242 100.969C132.245 101.03 132.236 101.091 132.214 101.148C132.075 101.495 118.35 136.511 114.516 147.181L128 157.445C128.062 157.493 128.109 157.561 128.134 157.64C128.159 157.718 128.159 157.803 128.137 157.883C128.114 157.962 128.068 158.031 128.006 158.081C127.945 158.13 127.87 158.157 127.794 158.157Z" fill="#151515"/>
<path d="M124.243 170.294C124.16 170.294 124.079 170.262 124.015 170.205C123.95 170.147 123.906 170.068 123.89 169.979C123.873 169.891 123.886 169.799 123.925 169.719C123.964 169.639 124.027 169.576 124.104 169.541C131.4 166.239 130.155 156.421 130.141 156.324C130.133 156.273 130.135 156.22 130.146 156.169C130.157 156.118 130.177 156.071 130.205 156.028C130.233 155.986 130.269 155.951 130.31 155.924C130.351 155.897 130.397 155.879 130.445 155.871C130.492 155.864 130.541 155.867 130.587 155.88C130.634 155.893 130.677 155.916 130.716 155.947C130.754 155.979 130.786 156.018 130.81 156.064C130.834 156.109 130.849 156.159 130.855 156.21C130.869 156.316 132.189 166.732 124.38 170.275C124.336 170.291 124.29 170.297 124.243 170.294Z" fill="#151515"/>
<path d="M34.4803 50.9374L28.6056 52.8472C28.6056 52.8472 12.709 50.5782 9.73176 50.3596C6.75456 50.141 5.28002 55.8651 9.19755 57.6105C13.1151 59.3558 24.8568 64.2429 27.4294 64.3056C30.002 64.3683 39.9349 61.674 39.9349 61.674L34.4803 50.9374Z" fill="white"/>
<path d="M27.5123 64.6979H27.417C24.785 64.6335 13.0465 59.7465 9.06024 57.9723C6.80781 56.9692 6.18925 54.7036 6.57507 52.9023C6.9687 51.0671 8.26986 49.8657 9.7569 49.9691C12.6373 50.1809 27.2405 52.2584 28.5776 52.4499L34.3852 50.5638C34.4643 50.538 34.5492 50.5425 34.6257 50.5764C34.7022 50.6103 34.7656 50.6717 34.8054 50.7502L40.2584 61.4851C40.2852 61.5376 40.3005 61.596 40.3031 61.656C40.3058 61.7159 40.2957 61.7757 40.2736 61.8307C40.2516 61.8857 40.2182 61.9345 40.176 61.9733C40.1338 62.0121 40.084 62.0399 40.0303 62.0544C39.6195 62.1612 30.2396 64.6979 27.5123 64.6979ZM9.57102 50.7452C8.34483 50.7452 7.52946 51.9313 7.28267 53.0802C6.98901 54.4494 7.35139 56.3625 9.33984 57.2471C13.1277 58.9416 24.9381 63.8557 27.4373 63.9133C29.6085 63.9743 37.4171 61.9375 39.3914 61.4139L34.3055 51.4026L28.7151 53.2226C28.6646 53.2398 28.6112 53.2444 28.5589 53.2361C28.4027 53.2141 12.6404 50.9655 9.70691 50.7502L9.57102 50.7452Z" fill="#151515"/>
<path d="M67.0313 35.9453L32.9465 50.6996C32.9465 50.6996 33.0403 66.2401 42.9762 71.1644L69.5117 56.1661C69.5117 56.1661 77.3812 44.1163 67.0313 35.9453Z" fill="#A06ECE"/>
<path d="M43.9915 68.7157C43.9254 68.716 43.8606 68.6966 43.804 68.6598C35.7799 63.383 35.8768 51.3976 35.8783 51.2773C35.88 51.1735 35.9196 51.0746 35.9885 51.0025C36.0573 50.9304 36.1497 50.8908 36.2454 50.8926C36.3411 50.8944 36.4322 50.9374 36.4987 51.0121C36.5652 51.0868 36.6017 51.187 36.6 51.2909C36.6 51.4061 36.511 62.9509 44.1773 67.9904C44.2442 68.0348 44.2959 68.1017 44.3247 68.1808C44.3534 68.26 44.3576 68.3471 44.3366 68.4291C44.3156 68.5111 44.2705 68.5834 44.2082 68.6351C44.146 68.6868 44.0699 68.7151 43.9915 68.7157Z" fill="#151515"/>
<path d="M70.1818 35.5539L85.3864 37.1739L107.041 35.4082C107.041 35.4082 125.266 61.7056 135.974 85.9814C135.974 85.9814 127.192 102.164 109.868 104.645C92.5436 107.126 85.085 100.859 85.085 100.859C85.085 100.859 83.159 85.2019 76.9031 74.5009C72.1734 66.4113 62.5638 54.4411 61.9218 44.1689C61.6094 39.1616 65.5707 35.0693 70.1818 35.5539Z" fill="#A06ECE"/>
<path d="M66.1535 57.4263C66.0899 57.426 66.0275 57.4075 65.9727 57.3727C65.9178 57.3379 65.8724 57.288 65.841 57.228C63.195 52.1732 61.797 47.9081 61.5658 44.2039C61.4371 42.1512 62.0036 40.1181 63.1591 38.4865C63.2175 38.4043 63.3036 38.3506 63.3985 38.3372C63.4934 38.3239 63.5893 38.352 63.6652 38.4154C63.741 38.4787 63.7905 38.5722 63.8028 38.6751C63.8151 38.7781 63.7892 38.8821 63.7308 38.9644C62.6828 40.4447 62.169 42.2891 62.2859 44.1513C62.5108 47.742 63.8776 51.8919 66.469 56.8433C66.4998 56.903 66.5157 56.9703 66.5151 57.0387C66.5145 57.1071 66.4973 57.1741 66.4654 57.233C66.4335 57.292 66.3879 57.3409 66.3332 57.3748C66.2784 57.4087 66.2165 57.4264 66.1535 57.4263Z" fill="#151515"/>
<path d="M102.87 102.424C93.676 102.424 87.0937 99.6973 87.0094 99.6617C86.9652 99.643 86.9248 99.6151 86.8905 99.5794C86.8563 99.5438 86.8288 99.5012 86.8098 99.4541C86.7713 99.3589 86.7692 99.251 86.804 99.1542C86.8388 99.0573 86.9076 98.9795 86.9953 98.9377C87.0831 98.8959 87.1825 98.8936 87.2718 98.9314C87.3843 98.9805 98.598 103.617 112.173 100.648C125.03 97.8418 133.117 84.7651 133.197 84.6329C133.223 84.59 133.256 84.5531 133.296 84.5242C133.335 84.4954 133.379 84.4753 133.426 84.465C133.472 84.4547 133.52 84.4544 133.567 84.4642C133.613 84.4739 133.658 84.4936 133.697 84.522C133.737 84.5503 133.771 84.5869 133.797 84.6295C133.824 84.6722 133.843 84.7201 133.852 84.7705C133.862 84.8209 133.862 84.8729 133.853 84.9234C133.844 84.974 133.826 85.0221 133.8 85.065C133.718 85.1989 125.465 98.5467 112.316 101.417C109.206 102.091 106.042 102.428 102.87 102.424Z" fill="#151515"/>
<path d="M83.2184 34.9569C78.712 35.4889 72.1109 42.3958 77.9653 48.6605C77.9653 48.6605 79.1884 46.3763 80.8129 44.614C80.8129 44.614 81.4752 47.354 82.7373 49.6976C82.7373 49.6976 88.2512 46.827 89.4337 41.3452C90.6161 35.8634 85.9847 34.6298 83.2184 34.9569Z" fill="white"/>
<path d="M82.7373 50.0955C82.6741 50.0955 82.6119 50.0776 82.5571 50.0434C82.5022 50.0092 82.4567 49.9599 82.4249 49.9006C81.6821 48.4658 81.084 46.9484 80.6411 45.3745C79.7555 46.4533 78.9643 47.6191 78.2778 48.8568C78.25 48.9084 78.2118 48.9524 78.166 48.9855C78.1202 49.0186 78.068 49.0399 78.0134 49.0478C77.9588 49.0556 77.9033 49.0498 77.8511 49.0308C77.7989 49.0118 77.7515 48.9801 77.7123 48.9381C74.9007 45.9337 75.0459 43.0259 75.6598 41.1145C76.8251 37.4814 80.4646 34.8871 83.1794 34.5617C84.9351 34.3567 87.4968 34.7397 88.9385 36.507C89.9413 37.7356 90.2256 39.3877 89.7867 41.4364C88.5777 47.0284 83.1262 49.9328 82.8951 50.0531C82.8461 50.08 82.7922 50.0945 82.7373 50.0955ZM80.8113 44.2205C80.8913 44.2207 80.969 44.2495 81.0323 44.3025C81.0956 44.3555 81.1409 44.4298 81.1612 44.5137C81.5789 46.1308 82.1549 47.6947 82.8795 49.1787C84.0228 48.5009 88.1106 45.7676 89.0838 41.2602C89.468 39.4809 89.24 38.0575 88.398 37.0239C87.2203 35.5801 84.9616 35.1379 83.2575 35.3378C80.7582 35.6327 77.3812 38.1253 76.3409 41.3653C75.602 43.6664 76.1425 45.9557 77.9029 48.0163C78.6667 46.6898 79.5567 45.4539 80.5583 44.329C80.6264 44.2584 80.7172 44.2195 80.8113 44.2205Z" fill="#151515"/>
<path d="M82.8983 25.4551L84.3697 30.1557L86.8689 38.2183C85.0304 41.0803 82.6921 42.2394 79.732 41.2684L78.8151 37.4269L77.4265 31.6096L82.8983 25.4551Z" fill="white"/>
<path d="M81.7032 41.9992C81.0018 41.993 80.3051 41.8754 79.6351 41.6502C79.5758 41.6308 79.5221 41.5952 79.4791 41.5469C79.4362 41.4985 79.4054 41.439 79.3898 41.374L77.0843 31.7152C77.0688 31.6505 77.0689 31.5825 77.0845 31.5179C77.1001 31.4532 77.1307 31.3939 77.1733 31.3457L82.6404 25.1861C82.6833 25.1378 82.737 25.1023 82.7963 25.083C82.8556 25.0636 82.9184 25.0612 82.9788 25.0758C83.0392 25.0905 83.0951 25.1217 83.1412 25.1665C83.1872 25.2114 83.2219 25.2683 83.2418 25.3319L87.2202 38.095C87.2384 38.153 87.2437 38.2148 87.2359 38.2754C87.228 38.3361 87.2071 38.3938 87.1749 38.4441C85.6535 40.8097 83.8197 41.9992 81.7032 41.9992ZM80.0365 40.9605C82.6076 41.723 84.7226 40.8029 86.4751 38.156L82.7466 26.191L77.8341 31.7287L80.0365 40.9605Z" fill="#151515"/>
<path d="M81.0111 27.582C81.6921 29.7019 84.3023 36.8053 79.3538 39.6589L77.4341 31.615L81.0111 27.582Z" fill="#151515"/>
<path d="M70.5316 29.1193C71.5297 32.9947 73.3432 37.514 77.5857 35.9584C82.6325 34.108 85.3489 29.4972 84.5397 24.134C83.7306 18.7709 80.9705 16.1782 75.1536 17.9066C74.6587 18.0525 74.1759 18.2429 73.7103 18.476C70.4691 20.1112 69.2476 23.4918 70.0333 27.0385C70.1817 27.679 70.341 28.3873 70.5316 29.1193Z" fill="white"/>
<path d="M76.3079 36.7453C75.4843 36.8233 74.6579 36.634 73.9336 36.2014C71.4594 34.7204 70.4003 30.7552 69.6022 27.1526C68.5947 22.6079 70.7799 18.7037 75.0395 17.4379C75.1525 17.4101 75.2711 17.4306 75.3704 17.4953C75.4698 17.5599 75.5424 17.6637 75.573 17.7849C75.6036 17.9061 75.5899 18.0355 75.5347 18.1461C75.4796 18.2566 75.3872 18.3398 75.277 18.3783C71.461 19.512 69.5756 22.8688 70.4753 26.9255C71.0189 29.3809 72.0373 33.951 74.3679 35.349C75.2582 35.8828 76.2642 35.9303 77.4419 35.4981C79.3163 34.8085 80.869 33.7358 82.0374 32.3107C82.1165 32.2141 82.2278 32.1556 82.3467 32.1479C82.4656 32.1403 82.5825 32.1842 82.6715 32.2701C82.7606 32.3559 82.8146 32.4766 82.8216 32.6056C82.8287 32.7347 82.7881 32.8614 82.709 32.9581C81.4594 34.4831 79.7318 35.6862 77.7309 36.4217C77.2709 36.5939 76.7929 36.7026 76.3079 36.7453Z" fill="#151515"/>
<path d="M86.6297 24.5057C86.2528 25.3935 85.8054 26.244 85.2926 27.0475L82.9777 27.6982L82.2498 25.7783C82.2498 25.7783 80.1067 26.0376 79.5631 24.8768C79.5496 24.8506 79.5376 24.8234 79.5272 24.7955C79.371 24.4108 78.7462 22.6841 78.5494 19.8543C78.5494 19.8543 74.8333 22.5401 72.6809 23.2043C71.8999 23.4433 70.9345 23.2891 70.0036 22.9908C68.1417 22.3944 66.1579 19.6458 66.1282 17.5395C66.1282 17.526 66.1282 17.5124 66.1282 17.4989C66.1188 14.4064 67.8949 16.2161 67.8949 16.2161C67.8949 16.2161 67.9198 13.7201 69.2882 13.2829C70.6565 12.8457 71.9077 14.9062 71.9077 14.9062C74.481 13.7231 77.2362 13.0748 80.0301 12.9948C85.5722 12.8711 84.8724 17.16 84.8724 17.16C84.8724 17.16 89.0648 17.7869 86.6297 24.5057Z" fill="#151515"/>
<path d="M82.7748 27.7223C82.2202 25.4313 83.4214 22.9861 85.5395 22.4066C85.9606 22.2894 86.3978 22.2567 86.8297 22.31C89.5523 22.6489 89.7788 29.3745 83.3043 29.9099L82.7748 27.7223Z" fill="white"/>
<path d="M83.3042 30.3012C83.2085 30.305 83.1153 30.2675 83.0451 30.1968C82.975 30.1261 82.9336 30.028 82.9301 29.9242C82.9265 29.8204 82.9612 29.7193 83.0264 29.6432C83.0915 29.5671 83.1819 29.5222 83.2776 29.5184C86.9093 29.2167 88.2355 26.9562 88.2761 25.1126C88.2995 23.8247 87.6763 22.8097 86.7953 22.6996C86.4067 22.6521 86.0134 22.6819 85.6347 22.7877C84.1539 23.1927 83.0746 24.6906 83.0105 26.4275C83.0093 26.4792 82.9986 26.53 82.979 26.5771C82.9594 26.6241 82.9313 26.6665 82.8963 26.7015C82.8614 26.7366 82.8203 26.7637 82.7755 26.7813C82.7307 26.7988 82.6832 26.8065 82.6356 26.8037C82.5882 26.8018 82.5417 26.7897 82.4986 26.7682C82.4555 26.7467 82.4167 26.7161 82.3845 26.6784C82.3523 26.6406 82.3273 26.5963 82.3109 26.548C82.2945 26.4998 82.287 26.4484 82.2889 26.397C82.3654 24.3145 83.6681 22.5183 85.4566 22.0285C85.92 21.8993 86.4012 21.8631 86.8765 21.9218C88.1355 22.0794 89.0258 23.4282 88.9962 25.1278C88.9493 27.4714 87.1811 29.986 83.3323 30.2995H83.3042V30.3012Z" fill="#151515"/>
<path d="M141.271 175.684C141.271 175.684 152.645 174.159 152.712 157.975C152.78 141.79 141.917 141.06 141.917 141.06L108.467 140.916C108.467 140.916 118.795 169.398 125.526 172.434C132.256 175.471 141.271 175.684 141.271 175.684Z" fill="white"/>
<path d="M141.271 176.074H141.263C141.172 176.074 132.102 175.82 125.387 172.792C118.593 169.727 108.556 142.226 108.131 141.057C108.109 140.998 108.101 140.933 108.108 140.87C108.114 140.806 108.135 140.746 108.168 140.693C108.201 140.64 108.246 140.597 108.298 140.567C108.35 140.537 108.408 140.521 108.467 140.521L141.917 140.666C142.05 140.666 153.139 141.601 153.072 157.973C153.005 174.346 141.432 176.056 141.314 176.071L141.271 176.074ZM109.001 141.306C110.465 145.234 119.652 169.357 125.663 172.068C132.067 174.959 140.704 175.273 141.252 175.288C141.981 175.181 152.288 173.383 152.352 157.968C152.416 142.355 142.325 141.476 141.896 141.445L109.001 141.306Z" fill="#151515"/>
<path d="M129.723 150.238L145.515 150.747C145.515 150.747 149.107 158.048 144.648 164.981L129.988 164.906L129.723 150.238Z" fill="white"/>
<path d="M144.648 165.379L129.988 165.305C129.894 165.304 129.803 165.264 129.736 165.192C129.669 165.12 129.631 165.023 129.629 164.92L129.356 150.246C129.355 150.192 129.364 150.14 129.382 150.09C129.401 150.041 129.428 149.997 129.463 149.959C129.534 149.885 129.629 149.845 129.727 149.846L145.519 150.354C145.584 150.355 145.647 150.375 145.702 150.411C145.757 150.447 145.801 150.499 145.832 150.561C145.869 150.635 149.482 158.156 144.943 165.21C144.91 165.262 144.866 165.304 144.814 165.334C144.763 165.363 144.706 165.379 144.648 165.379ZM130.341 164.524L144.459 164.595C148.186 158.617 145.797 152.321 145.285 151.13L130.091 150.637L130.341 164.524Z" fill="#151515"/>
<path d="M141.916 141.058C141.916 141.058 135.319 145.25 135.852 154.287C136.385 163.324 144.648 164.987 144.648 164.987L116.391 164.841L108.462 140.914L141.916 141.058Z" fill="white"/>
<path d="M144.648 165.378L116.391 165.231C116.317 165.23 116.245 165.205 116.185 165.159C116.124 165.112 116.079 165.047 116.053 164.972L108.126 141.045C108.107 140.986 108.1 140.923 108.108 140.86C108.116 140.798 108.138 140.739 108.171 140.687C108.204 140.636 108.249 140.594 108.3 140.565C108.352 140.536 108.409 140.521 108.467 140.521L141.917 140.666C141.996 140.666 142.073 140.695 142.135 140.747C142.198 140.799 142.243 140.872 142.264 140.955C142.284 141.038 142.279 141.125 142.249 141.205C142.219 141.284 142.166 141.351 142.098 141.394C142.034 141.435 135.694 145.583 136.213 154.261C136.722 162.879 144.388 164.533 144.715 164.597C144.762 164.602 144.808 164.617 144.85 164.641C144.892 164.665 144.929 164.698 144.96 164.737C144.99 164.777 145.013 164.823 145.027 164.872C145.041 164.921 145.046 164.973 145.041 165.024C145.037 165.076 145.023 165.125 145.001 165.171C144.979 165.217 144.949 165.257 144.912 165.29C144.876 165.323 144.833 165.348 144.788 165.363C144.743 165.378 144.695 165.383 144.648 165.378ZM116.649 164.452L142.381 164.584C139.81 163.379 135.858 160.527 135.491 154.313C135.074 147.254 138.957 143.034 140.802 141.447L108.982 141.308L116.649 164.452Z" fill="#151515"/>
<path d="M68.6011 52.9395C68.6011 52.9395 75.8395 56.6267 76.4939 66.6736C77.1484 76.7204 71.0175 82.287 71.0175 82.287L58.5573 81.5634C58.5573 81.5634 55.2568 57.5672 68.6011 52.9395Z" fill="white"/>
<path d="M71.0174 82.6864H70.9986L58.5384 81.9646C58.4546 81.9595 58.3751 81.9228 58.3135 81.861C58.2519 81.7991 58.2121 81.7159 58.201 81.6257C58.1666 81.3816 55.0114 57.2431 68.4931 52.5696C68.5801 52.5392 68.6745 52.5458 68.7571 52.5882C68.8321 52.6255 76.1939 56.4857 76.8562 66.6528C77.5153 76.7827 71.3141 82.5373 71.2517 82.5949C71.186 82.6546 71.103 82.6871 71.0174 82.6864ZM58.8758 81.1986L70.8893 81.8951C71.6796 81.1088 76.7203 75.7151 76.1345 66.7087C75.5488 57.7023 69.5147 53.91 68.5712 53.3694C56.6499 57.6633 58.5572 78.3739 58.8758 81.1919V81.1986Z" fill="#151515"/>
<path d="M65.9534 69.4925C65.9534 69.4925 66.7532 77.589 71.0175 82.2879L58.5573 81.5643L56.9578 68.8418L65.9534 69.4925Z" fill="white"/>
<path d="M71.0175 82.6871H70.9987L58.5385 81.9652C58.4544 81.9605 58.3746 81.924 58.3127 81.8621C58.2508 81.8002 58.2107 81.7168 58.1996 81.6263L56.6 68.9038C56.5927 68.8463 56.5973 68.7877 56.6135 68.7323C56.6297 68.6769 56.657 68.6262 56.6935 68.5836C56.7299 68.5411 56.7747 68.508 56.8245 68.4866C56.8742 68.4651 56.9278 68.456 56.9812 68.4598L65.9768 69.1105C66.0615 69.1168 66.1414 69.1552 66.2025 69.219C66.2637 69.2829 66.3021 69.3681 66.3111 69.4596C66.3189 69.5392 67.1499 77.4781 71.2736 82.0211C71.3234 82.0761 71.3572 82.1457 71.3707 82.2213C71.3842 82.297 71.3768 82.3753 71.3494 82.4464C71.3221 82.5175 71.276 82.5783 71.2169 82.6211C71.1579 82.6639 71.0885 82.6869 71.0175 82.6871ZM58.8744 81.1993L70.1552 81.8398C66.7828 77.5679 65.8222 71.3626 65.6332 69.8561L57.3764 69.2596L58.8744 81.1993Z" fill="#151515"/>
<path d="M141.271 175.684H72.9511C72.9511 175.684 57.2232 169.753 50.8251 151.252C44.4271 132.751 26.5749 115.105 17.2418 105.278C7.90879 95.4515 -4.74822 69.8624 9.31304 49.9043L68.6009 52.9409C68.6009 52.9409 56.9061 61.583 61.3563 78.5825C64.6662 91.2389 74.5506 100.793 87.4763 111.927C100.402 123.062 109.198 134.336 113.863 148.068C118.229 160.928 129.371 174.794 141.271 175.684Z" fill="white"/>
<path d="M141.271 176.075H72.9513C72.9108 176.075 72.8707 176.068 72.8326 176.053C72.6764 175.994 56.8703 169.851 50.4958 151.389C44.6273 134.412 28.7947 117.882 19.3351 108.009C18.5104 107.149 17.7278 106.332 16.9921 105.563C8.12766 96.2173 -5.48217 70.2605 9.02582 49.6703C9.06178 49.6209 9.10794 49.5814 9.16058 49.5549C9.21322 49.5284 9.27086 49.5157 9.32885 49.5178L68.6167 52.5544C68.6924 52.5582 68.7651 52.5877 68.8245 52.6388C68.8839 52.6899 68.9269 52.76 68.9475 52.8392C68.968 52.9183 68.9651 53.0025 68.9391 53.0797C68.9131 53.157 68.8653 53.2234 68.8026 53.2695C68.6886 53.3542 57.378 61.9573 61.7017 78.4807C65.0584 91.3167 75.4614 101.086 87.6983 111.626C101.361 123.386 109.782 134.925 114.204 147.926C118.482 160.528 129.432 174.399 141.297 175.286C141.394 175.289 141.485 175.335 141.551 175.411C141.616 175.488 141.651 175.59 141.648 175.695C141.644 175.8 141.603 175.898 141.532 175.97C141.461 176.041 141.367 176.079 141.271 176.075ZM73.0107 175.292H137.199C126.652 172.019 117.389 159.599 113.52 148.204C109.146 135.337 100.799 123.908 87.2468 112.232C74.9069 101.606 64.4211 91.7488 61.005 78.6806C57.2234 64.2297 65.0444 55.635 67.6139 53.2746L9.48662 50.3041C-4.54496 70.4503 8.80245 95.8343 17.4935 104.997C18.223 105.764 19.004 106.581 19.8287 107.44C29.332 117.363 45.2396 133.971 51.1643 151.113C57.2359 168.677 71.9906 174.881 73.0153 175.292H73.0107Z" fill="#151515"/>
<path d="M11.3562 63.4758C10.5596 63.5589 9.92387 68.5713 10.4565 71.8976C10.9892 75.224 11.7233 76.2356 11.9889 76.5237C12.2544 76.8117 22.923 77.3184 23.4494 77.2472C23.9758 77.1761 23.1822 73.5599 23.1166 71.1029C23.051 68.6458 23.3838 65.2483 23.3838 64.7416C23.3838 64.235 12.3903 63.3691 11.3562 63.4758Z" fill="#A06ECE"/>
<path d="M29.6834 71.805C29.6917 72.2242 29.8451 72.6245 30.1131 72.9266C30.3811 73.2286 30.7441 73.4102 31.1298 73.4352L52.3482 74.8111C52.5852 74.8264 52.8225 74.7871 53.0444 74.6957C53.2664 74.6043 53.468 74.4629 53.6359 74.2809C53.8038 74.0988 53.9343 73.8803 54.0188 73.6396C54.1032 73.3989 54.1397 73.1415 54.1258 72.8845C54.103 72.4333 53.9266 72.0074 53.6308 71.6893C53.335 71.3712 52.9408 71.1836 52.5247 71.1628L31.2923 70.0936C31.0811 70.083 30.8701 70.1198 30.6726 70.2016C30.475 70.2834 30.2952 70.4086 30.1442 70.5692C29.9933 70.7297 29.8744 70.9224 29.7951 71.135C29.7158 71.3477 29.6778 71.5757 29.6834 71.805Z" fill="#F9CC00"/>
<path d="M16.3734 86.7299C15.6096 86.8654 16.7483 91.1661 18.4572 93.9435C20.166 96.7208 21.2547 97.5189 21.6234 97.7426C21.992 97.9663 32.8027 97.5342 33.3088 97.4291C33.8149 97.3241 31.7374 94.3247 30.8018 92.2456C29.8661 90.1664 28.9945 87.2586 28.8165 86.8231C28.6384 86.3876 17.3591 86.5553 16.3734 86.7299Z" fill="#A06ECE"/>
<path d="M37.8871 92.3747C37.8954 92.7938 38.0488 93.1942 38.3168 93.4962C38.5848 93.7982 38.9477 93.9798 39.3335 94.0048L60.5503 95.3808C60.7873 95.396 61.0246 95.3567 61.2465 95.2653C61.4685 95.1739 61.6701 95.0325 61.838 94.8505C62.0059 94.6685 62.1364 94.4499 62.2209 94.2092C62.3053 93.9686 62.3418 93.7112 62.3279 93.4541C62.3033 93.0047 62.1263 92.5811 61.831 92.2648C61.5357 91.9485 61.143 91.7619 60.7284 91.7409L39.4959 90.6717C39.2854 90.6612 39.0751 90.6977 38.8781 90.779C38.6811 90.8604 38.5017 90.9847 38.3508 91.1444C38.1999 91.3041 38.0809 91.4957 38.0012 91.7073C37.9214 91.9189 37.8826 92.1461 37.8871 92.3747Z" fill="#F9CC00"/>
<path d="M30.2301 106.009C29.4663 106.145 30.605 110.445 32.3139 113.223C34.0227 116 35.1114 116.798 35.4801 117.022C35.8487 117.246 46.6594 116.813 47.1655 116.708C47.6716 116.603 45.5941 113.604 44.6585 111.525C43.7228 109.446 42.8512 106.538 42.6731 106.102C42.4951 105.667 31.2205 105.835 30.2301 106.009Z" fill="#A06ECE"/>
<path d="M51.7438 111.662C51.7677 112.081 51.9358 112.474 52.2148 112.764C52.4938 113.054 52.8632 113.22 53.2496 113.228L74.493 113.68C74.7305 113.685 74.9662 113.636 75.1847 113.535C75.4033 113.434 75.5996 113.284 75.7607 113.095C75.9219 112.905 76.0443 112.681 76.1198 112.437C76.1953 112.193 76.2222 111.934 76.1987 111.677C76.1578 111.229 75.9654 110.813 75.6585 110.509C75.3516 110.206 74.952 110.036 74.5368 110.034L53.2855 109.883C53.0744 109.882 52.8653 109.928 52.6713 110.019C52.4774 110.109 52.3026 110.242 52.158 110.409C52.0134 110.576 51.902 110.773 51.8307 110.989C51.7595 111.204 51.7299 111.434 51.7438 111.662Z" fill="#F9CC00"/>
<path d="M46.3049 126.304C45.5473 126.474 46.8501 130.72 48.6636 133.421C50.4771 136.122 51.5955 136.868 51.9719 137.075C52.3484 137.282 63.1341 136.363 63.6355 136.236C64.1369 136.109 61.9469 133.204 60.9316 131.169C59.9163 129.134 58.9354 126.269 58.7448 125.849C58.5542 125.428 47.289 126.084 46.3049 126.304Z" fill="#A06ECE"/>
<path d="M68.0152 129.906C68.0551 130.323 68.2379 130.708 68.5272 130.985C68.8165 131.262 69.1913 131.411 69.5772 131.402L90.8207 130.894C91.0581 130.888 91.2917 130.828 91.5061 130.718C91.7205 130.607 91.9109 130.448 92.0647 130.252C92.2185 130.056 92.3322 129.826 92.3983 129.579C92.4644 129.331 92.4814 129.072 92.4483 128.816C92.3903 128.371 92.1829 127.965 91.8658 127.676C91.5486 127.387 91.1442 127.235 90.7301 127.249L69.4866 128.059C69.2757 128.068 69.0687 128.123 68.8785 128.222C68.6882 128.322 68.5188 128.462 68.3808 128.636C68.2428 128.809 68.1391 129.011 68.0762 129.23C68.0134 129.448 67.9926 129.678 68.0152 129.906Z" fill="#F9CC00"/>
<path d="M58.0979 144.927C57.3403 145.096 58.643 149.343 60.4565 152.044C62.27 154.745 63.3884 155.491 63.7649 155.697C64.1413 155.904 74.927 154.986 75.4284 154.859C75.9299 154.731 73.7399 151.824 72.7246 149.79C71.7093 147.757 70.7283 144.89 70.5378 144.469C70.3472 144.049 59.082 144.707 58.0979 144.927Z" fill="#A06ECE"/>
<path d="M79.8084 148.531C79.8483 148.948 80.0311 149.333 80.3204 149.61C80.6097 149.887 80.9845 150.036 81.3705 150.027L102.614 149.519C102.851 149.513 103.085 149.453 103.299 149.343C103.514 149.232 103.704 149.073 103.858 148.877C104.012 148.681 104.125 148.451 104.191 148.204C104.258 147.956 104.275 147.697 104.241 147.441C104.184 146.996 103.976 146.59 103.659 146.301C103.342 146.012 102.937 145.86 102.523 145.874L81.2799 146.684C81.0689 146.693 80.8619 146.748 80.6717 146.847C80.4815 146.947 80.3121 147.087 80.174 147.26C80.036 147.434 79.9324 147.636 79.8695 147.855C79.8066 148.073 79.7858 148.303 79.8084 148.531Z" fill="#F9CC00"/>
<path d="M70.7004 161.481C69.9429 161.65 71.2456 165.897 73.0591 168.598C74.8726 171.299 75.991 172.045 76.3674 172.251C76.7439 172.458 87.5296 171.54 88.031 171.413C88.5324 171.286 86.3425 168.381 85.3271 166.346C84.3118 164.311 83.3309 161.445 83.1403 161.025C82.9498 160.605 71.6845 161.254 70.7004 161.481Z" fill="#A06ECE"/>
<path d="M92.4109 165.079C92.4508 165.495 92.6336 165.88 92.9229 166.157C93.2122 166.434 93.587 166.584 93.9729 166.575L115.216 166.067C115.455 166.063 115.69 166.005 115.905 165.896C116.121 165.786 116.313 165.628 116.469 165.432C116.624 165.236 116.739 165.007 116.807 164.759C116.874 164.511 116.892 164.25 116.86 163.994C116.802 163.549 116.594 163.143 116.277 162.854C115.96 162.564 115.556 162.412 115.141 162.427L93.898 163.237C93.6861 163.243 93.4778 163.297 93.2861 163.395C93.0944 163.493 92.9233 163.633 92.7837 163.805C92.6441 163.978 92.539 164.181 92.4748 164.4C92.4106 164.619 92.3889 164.85 92.4109 165.079Z" fill="#F9CC00"/>
<path d="M128.273 68.4971C128.273 68.4971 127.07 75.5447 116.603 75.6752C109.76 75.7582 106.517 71.7778 105.093 69.0038C104.337 67.5364 97.9559 51.1401 97.4748 46.4412C96.9937 41.7423 98.5572 34.6947 107.036 35.4098C114.885 36.0775 126.684 64.5709 128.123 68.1311C128.132 68.1601 128.143 68.188 128.157 68.2142C128.165 68.2277 128.171 68.2419 128.176 68.2565C128.225 68.387 128.257 68.47 128.262 68.4921L128.273 68.4971Z" fill="#A06ECE"/>
<path d="M116.391 76.0687C109.362 76.0687 106.099 71.7731 104.774 69.194C104.035 67.7588 97.606 51.2948 97.1202 46.4874C96.964 45.0233 96.7297 40.016 99.9318 37.0523C100.005 36.9889 100.098 36.9589 100.191 36.9686C100.284 36.9782 100.37 37.0267 100.431 37.1039C100.492 37.1811 100.523 37.2809 100.517 37.3822C100.511 37.4836 100.469 37.5785 100.4 37.647C97.4716 40.3583 97.7012 45.0318 97.8418 46.3993C98.3104 50.9881 104.694 67.4114 105.416 68.8145C106.939 71.7782 110.077 75.2876 116.397 75.2876H116.608C122.367 75.2164 125.224 73.0101 126.605 71.1733C126.635 71.1329 126.671 71.0994 126.713 71.0746C126.755 71.0498 126.801 71.0342 126.848 71.0288C126.896 71.0233 126.944 71.0281 126.989 71.0429C127.035 71.0576 127.077 71.082 127.114 71.1147C127.151 71.1474 127.182 71.1877 127.204 71.2332C127.227 71.2788 127.241 71.3287 127.245 71.3802C127.25 71.4316 127.245 71.4836 127.231 71.533C127.217 71.5824 127.194 71.6283 127.164 71.6681C125.685 73.6354 122.653 75.9959 116.616 76.0738H116.391V76.0687Z" fill="#151515"/>
<path d="M105.568 65.6257C105.497 65.6255 105.428 65.6028 105.369 65.5604C105.31 65.518 105.264 65.4578 105.236 65.3872C105.209 65.3167 105.201 65.2389 105.214 65.1635C105.226 65.0881 105.259 65.0184 105.308 64.9631C105.383 64.8801 112.875 56.6752 124.285 61.4775C124.375 61.515 124.446 61.5895 124.485 61.6845C124.524 61.7795 124.526 61.8873 124.491 61.9841C124.457 62.081 124.388 62.159 124.301 62.2009C124.213 62.2429 124.114 62.2454 124.024 62.2078C113.073 57.5987 105.905 65.4274 105.827 65.5088C105.793 65.5461 105.753 65.5756 105.708 65.5957C105.664 65.6158 105.616 65.626 105.568 65.6257Z" fill="#151515"/>
<path d="M128.273 68.4981C128.273 68.4981 127.297 74.2307 119.429 75.4457C118.493 75.5842 117.55 75.6589 116.605 75.6694C109.762 75.7524 106.519 71.772 105.094 68.998C106.655 66.9053 108.687 65.2851 110.994 64.294C112.963 63.4469 115.055 62.9845 117.172 62.9282C117.857 62.9017 118.542 62.9124 119.226 62.9604C125.505 63.3891 127.609 66.9697 128.13 68.1338C128.138 68.1628 128.15 68.1907 128.164 68.2168C128.171 68.2304 128.177 68.2446 128.183 68.2592C128.216 68.3356 128.245 68.4143 128.269 68.4947L128.273 68.4981Z" fill="#A06ECE"/>
<path d="M116.391 76.0686C109.362 76.0686 106.097 71.773 104.773 69.1939C104.738 69.1262 104.722 69.0488 104.728 68.9716C104.734 68.8944 104.761 68.8208 104.805 68.7601C106.402 66.6122 108.486 64.9505 110.852 63.9375C112.859 63.0729 114.99 62.5985 117.148 62.5361C117.846 62.5089 118.544 62.5197 119.24 62.5683C122.192 62.77 124.599 63.6698 126.389 65.2457C126.464 65.3111 126.511 65.4058 126.521 65.5091C126.531 65.6124 126.503 65.7157 126.442 65.7964C126.382 65.8771 126.295 65.9284 126.2 65.9393C126.104 65.9501 126.009 65.9194 125.935 65.854C124.27 64.3848 122.002 63.5376 119.202 63.3495C118.578 63.3037 117.897 63.2936 117.181 63.319C115.108 63.378 113.06 63.8328 111.132 64.6628C108.958 65.5941 107.033 67.0991 105.532 69.0414C107.114 71.9865 110.296 75.3467 116.603 75.284C117.533 75.2733 118.461 75.1998 119.382 75.0638C123.398 74.4402 125.524 72.6016 126.602 71.1663C126.663 71.0869 126.75 71.0368 126.844 71.0268C126.939 71.0168 127.034 71.0478 127.107 71.113C127.181 71.1783 127.228 71.2725 127.238 71.3751C127.248 71.4778 127.22 71.5806 127.161 71.6611C126.003 73.2015 123.724 75.1756 119.484 75.8348C118.532 75.9756 117.573 76.052 116.613 76.0635H116.391V76.0686Z" fill="#151515"/>
<path d="M119.938 73.7918C119.878 74.3782 119.703 74.9441 119.427 75.4525C117.964 78.2146 113.389 80.5005 105.322 79.0957C98.7619 77.9519 88.287 73.2496 82.2436 70.3469C79.3898 68.9794 77.5232 68.0135 77.5232 68.0135L78.7025 63.4773C78.7025 63.4773 78.9774 63.4773 79.4726 63.4773C83.7072 63.5247 104.231 63.7636 110.992 64.2974C112.962 63.449 115.054 62.9854 117.172 62.9282C117.857 62.9017 118.542 62.9124 119.226 62.9604L119.501 66.6511L119.904 72.1803L119.918 72.3498C119.974 72.8282 119.981 73.3118 119.938 73.7918Z" fill="white"/>
<path d="M109.946 79.9144C108.376 79.9054 106.809 79.7609 105.26 79.4823C98.5807 78.3182 87.8778 73.4837 82.0921 70.7047C79.2664 69.349 77.3811 68.3764 77.3623 68.3662C77.2855 68.3265 77.2242 68.2587 77.189 68.1746C77.1538 68.0906 77.1472 67.9958 77.1702 67.907L78.3558 63.369C78.3772 63.2871 78.4226 63.215 78.4852 63.1637C78.5477 63.1123 78.624 63.0845 78.7025 63.0844C78.7025 63.0844 78.9774 63.0844 79.4835 63.0844C86.8422 63.1657 104.585 63.408 110.943 63.8977C112.927 63.055 115.031 62.5923 117.161 62.5303C117.858 62.503 118.556 62.5138 119.252 62.5624C119.339 62.5687 119.42 62.6084 119.482 62.6743C119.544 62.7403 119.581 62.8281 119.588 62.9217L120.285 72.2975C120.344 72.8035 120.35 73.3151 120.304 73.8226C120.238 74.4634 120.048 75.0819 119.746 75.6374C118.556 77.8844 115.41 79.9144 109.946 79.9144ZM77.9543 67.8002C78.5791 68.1171 80.1974 68.9373 82.3904 69.9879C88.1449 72.7516 98.7822 77.559 105.382 78.7079C113.418 80.1076 117.745 77.842 119.115 75.2562C119.367 74.796 119.527 74.2832 119.584 73.7514C119.624 73.3002 119.618 72.8455 119.565 72.3958L119.549 72.2263L118.89 63.3301C118.353 63.3013 117.781 63.2979 117.181 63.3199C115.108 63.3789 113.06 63.8337 111.132 64.6637C111.082 64.6858 111.029 64.6951 110.975 64.6908C104.537 64.1824 85.2396 63.9367 79.4788 63.8723H78.9853L77.9543 67.8002Z" fill="#151515"/>
<path d="M82.2436 70.3442C79.3898 68.9767 77.5232 68.0109 77.5232 68.0109L78.7025 63.4746C78.7025 63.4746 78.9774 63.4746 79.4726 63.4746L82.2436 70.3442Z" fill="#151515"/>
<path d="M119.496 66.6494C115.401 64.8176 110.993 64.3008 110.993 64.3008C112.962 63.4512 115.054 62.9865 117.172 62.9282C117.857 62.9017 118.542 62.9124 119.226 62.9604L119.496 66.6494Z" fill="#151515"/>
<path d="M72.7185 58.3402C72.7185 58.3402 67.6872 59.1706 67.114 57.8065C66.5407 56.4424 68.7509 54.4174 73.7244 54.4496C78.6979 54.4818 77.8278 57.5997 77.8278 57.5997C77.8278 57.5997 80.0365 59.3536 79.532 64.1711C79.0274 68.9886 77.7388 71.0441 71.8125 70.59C65.8862 70.1358 66.9874 61.8055 67.4998 60.3838C68.0121 58.9621 72.7185 58.3402 72.7185 58.3402Z" fill="white"/>
<path d="M73.3058 71.0392C72.8372 71.0392 72.3296 71.0188 71.7876 70.9765C70.0006 70.8392 68.6542 70.0157 67.7857 68.5262C66.0909 65.6201 66.8094 61.2228 67.1609 60.2383C67.3546 59.6977 67.9747 59.2707 68.737 58.9386C67.8076 58.8335 67.0312 58.5573 66.7829 57.9659C66.6824 57.7136 66.644 57.4373 66.6714 57.1641C66.6988 56.8908 66.791 56.63 66.9391 56.4069C67.631 55.2496 69.7757 54.0346 73.7182 54.0549C75.7488 54.0702 77.1156 54.5853 77.7935 55.58C78.1527 56.1179 78.3035 56.787 78.2137 57.444C78.7635 58.0032 80.324 59.9858 79.8804 64.2069C79.4149 68.7448 78.2512 71.0392 73.3058 71.0392ZM72.1859 58.8132C70.3755 59.1165 68.1075 59.7757 67.8372 60.5229C67.5373 61.3567 66.9 65.5303 68.3964 68.1076C69.1353 69.3735 70.2927 70.0767 71.8329 70.1953C77.553 70.6342 78.6823 68.7651 79.1743 64.1238C79.6429 59.6198 77.6982 57.9795 77.6123 57.9117C77.5527 57.8634 77.5081 57.7964 77.4846 57.7197C77.4612 57.643 77.4599 57.5604 77.4811 57.483C77.5356 57.2359 77.5398 56.9788 77.4934 56.7298C77.447 56.4808 77.3511 56.2457 77.2124 56.0409C76.6798 55.2682 75.4724 54.8548 73.7198 54.8378C70.0647 54.7988 68.1122 55.8952 67.5514 56.834C67.3764 57.1271 67.339 57.3982 67.4405 57.6422C67.6998 58.2624 69.9506 58.3201 72.0875 58.0371C72.3436 57.9947 72.5467 57.9659 72.6717 57.9507C72.7665 57.9365 72.8627 57.9638 72.939 58.0266C73.0153 58.0893 73.0655 58.1824 73.0786 58.2853C73.0916 58.3882 73.0665 58.4926 73.0086 58.5753C72.9507 58.6581 72.8649 58.7126 72.7701 58.7267C72.617 58.7505 72.4171 58.7827 72.1859 58.8132Z" fill="#151515"/>
<path d="M11.1266 49.7213C11.1266 49.7213 14.1054 54.1982 15.4034 53.6864C16.7014 53.1747 16.4968 50.0398 12.9823 46.217C9.46775 42.3941 8.03538 45.2375 8.03538 45.2375C8.03538 45.2375 5.33154 44.7631 2.51991 48.5266C-0.291717 52.2902 -0.747825 54.7286 3.70236 58.9988C8.15254 63.269 12.8604 56.5841 13.4368 55.1912C14.0132 53.7983 11.1266 49.7213 11.1266 49.7213Z" fill="white"/>
<path d="M6.8358 60.8005C5.63774 60.8005 4.50684 60.2922 3.46341 59.2941C-1.22263 54.7985 -0.663431 52.1618 2.23879 48.2797C4.70521 44.9838 7.10291 44.7974 7.86205 44.8347C8.23162 44.3061 8.77706 43.9552 9.38189 43.857C10.5159 43.6875 11.8155 44.3823 13.2432 45.9395C16.0251 48.971 16.7202 51.4908 16.4438 52.8362C16.4017 53.1073 16.2955 53.3619 16.1356 53.5751C15.9757 53.7884 15.7676 53.953 15.5315 54.0529C14.9677 54.2732 14.2413 53.8665 13.5228 53.2209C13.8352 54.0444 13.9914 54.8239 13.7711 55.3509C13.3713 56.3151 10.9814 59.9499 7.88235 60.6734C7.53866 60.756 7.18783 60.7987 6.8358 60.8005ZM7.69647 45.6142C6.97014 45.6142 4.94733 45.9022 2.79956 48.7745C0.0863353 52.4024 -0.354151 54.5833 3.94139 58.7078C5.10197 59.8211 6.37657 60.2329 7.72459 59.9109C10.4737 59.2704 12.7683 55.844 13.1073 55.0324C13.4119 54.3003 12.256 52.0822 11.1876 50.4673C11.0454 50.2656 10.9252 50.0877 10.833 49.9488C10.7758 49.8654 10.7515 49.7608 10.7654 49.658C10.7794 49.5552 10.8303 49.4626 10.9072 49.4006C10.984 49.3386 11.0805 49.3122 11.1752 49.3273C11.27 49.3424 11.3553 49.3977 11.4125 49.4811C11.489 49.5895 11.6124 49.7658 11.7624 49.9894C13.0729 51.8534 14.6912 53.548 15.2785 53.3158C15.5097 53.2243 15.6627 53.0057 15.733 52.6651C15.958 51.5738 15.305 49.3015 12.7262 46.4902C11.489 45.1346 10.3691 44.4992 9.4881 44.6263C9.25572 44.6624 9.03342 44.7531 8.83673 44.8922C8.64005 45.0312 8.47373 45.2151 8.3494 45.4312C8.31312 45.5018 8.25766 45.5585 8.19057 45.5937C8.12349 45.6289 8.04805 45.6407 7.97451 45.6277C7.88224 45.6161 7.78933 45.6116 7.69647 45.6142Z" fill="#151515"/>
<path d="M128.695 35.0016L113.304 24.6971C113.004 24.496 112.747 24.2272 112.551 23.9091C112.354 23.5909 112.223 23.2306 112.166 22.8528C112.11 22.4749 112.128 22.0882 112.221 21.7188C112.314 21.3494 112.479 21.0059 112.704 20.7116L123.131 7.1266C123.511 6.63199 124.042 6.30262 124.628 6.19896C125.213 6.09531 125.814 6.22432 126.319 6.56232L137.801 14.2487C138.306 14.5869 138.681 15.1112 138.858 15.7253C139.035 16.3394 139.002 17.0022 138.765 17.592L132.247 33.7951C132.106 34.1459 131.897 34.4597 131.634 34.7154C131.371 34.971 131.061 35.1625 130.724 35.2769C130.388 35.3913 130.032 35.4259 129.682 35.3784C129.332 35.3309 128.995 35.2024 128.695 35.0016Z" fill="white"/>
<path d="M129.99 35.791C129.466 35.7908 128.953 35.6323 128.508 35.3335L113.111 25.0308C112.766 24.8003 112.47 24.4919 112.245 24.1265C112.019 23.7612 111.869 23.3475 111.803 22.9136C111.738 22.4796 111.76 22.0355 111.867 21.6113C111.974 21.1872 112.164 20.7931 112.423 20.4556L122.85 6.87055C123.287 6.3062 123.896 5.93053 124.566 5.81175C125.236 5.69297 125.924 5.83898 126.503 6.22324L137.986 13.9096C138.563 14.2992 138.992 14.9006 139.195 15.6043C139.398 16.308 139.361 17.0674 139.092 17.7443L132.573 33.9457C132.355 34.4925 131.994 34.9582 131.535 35.2859C131.076 35.6137 130.539 35.7892 129.99 35.791ZM125.03 6.55876C124.721 6.55796 124.416 6.63086 124.136 6.7723C123.856 6.91373 123.608 7.12024 123.409 7.37721L112.983 20.9622C112.79 21.2134 112.649 21.5065 112.57 21.8217C112.491 22.137 112.475 22.467 112.523 22.7895C112.572 23.112 112.684 23.4194 112.852 23.6909C113.019 23.9624 113.239 24.1917 113.495 24.3631L128.887 34.6676C129.143 34.839 129.431 34.9487 129.73 34.9894C130.028 35.03 130.332 35.0005 130.619 34.903C130.907 34.8055 131.171 34.6422 131.396 34.4241C131.62 34.2061 131.798 33.9383 131.919 33.639L138.437 17.4359C138.637 16.9321 138.665 16.3671 138.513 15.8435C138.362 15.3199 138.043 14.8725 137.614 14.5823L126.132 6.89597C125.801 6.67454 125.419 6.55775 125.03 6.55876Z" fill="#151515"/>
<path d="M127.456 9.68105L130.944 3.55195C131.539 2.50661 132.492 1.76036 133.594 1.47737C134.696 1.19438 135.856 1.39784 136.82 2.04297C137.783 2.68811 138.471 3.72208 138.732 4.91743C138.993 6.11278 138.805 7.37159 138.211 8.41693L134.723 14.5477C134.683 14.6167 134.657 14.6934 134.645 14.7735C134.633 14.8535 134.636 14.9353 134.653 15.0142C134.67 15.0931 134.702 15.1676 134.745 15.2334C134.789 15.2991 134.844 15.3549 134.908 15.3975C134.971 15.4402 135.042 15.4688 135.116 15.4817C135.19 15.4947 135.265 15.4918 135.338 15.4731C135.411 15.4545 135.479 15.4205 135.54 15.3731C135.6 15.3256 135.652 15.2657 135.691 15.1967L139.179 9.06594C139.572 8.41049 139.841 7.6764 139.968 6.90681C140.096 6.13722 140.081 5.34768 139.923 4.58459C139.766 3.82151 139.469 3.10028 139.051 2.46332C138.633 1.82636 138.102 1.28652 137.489 0.875543C136.875 0.464562 136.192 0.190734 135.48 0.0701583C134.768 -0.0504174 134.041 -0.0153081 133.341 0.173424C132.642 0.362155 131.984 0.7007 131.407 1.16915C130.83 1.63761 130.345 2.22651 129.98 2.90125L126.492 9.03205C126.413 9.17137 126.388 9.33917 126.423 9.49854C126.457 9.65791 126.549 9.79579 126.678 9.88185C126.806 9.96792 126.961 9.99511 127.108 9.95745C127.254 9.9198 127.382 9.82037 127.461 9.68105H127.456Z" fill="#F9CC00"/>
<path d="M181.45 88.5808C179.912 88.5808 178.437 89.2437 177.349 90.4237C176.262 91.6036 175.651 93.2039 175.651 94.8726C175.651 93.2039 175.04 91.6036 173.952 90.4237C172.864 89.2437 171.389 88.5808 169.851 88.5808C170.612 88.5808 171.367 88.4181 172.07 88.1019C172.774 87.7857 173.413 87.3223 173.952 86.738C174.49 86.1538 174.918 85.4602 175.209 84.6968C175.501 83.9335 175.651 83.1153 175.651 82.2891C175.651 83.1153 175.801 83.9335 176.092 84.6968C176.384 85.4602 176.811 86.1538 177.349 86.738C177.888 87.3223 178.527 87.7857 179.231 88.1019C179.935 88.4181 180.689 88.5808 181.45 88.5808Z" fill="#F9CC00"/>
<path d="M165.741 106.501C165.12 106.501 164.524 106.769 164.084 107.245C163.645 107.722 163.398 108.368 163.398 109.043C163.398 108.368 163.151 107.722 162.712 107.245C162.273 106.769 161.677 106.501 161.055 106.501C161.677 106.501 162.273 106.233 162.712 105.756C163.151 105.28 163.398 104.633 163.398 103.959C163.398 104.633 163.645 105.28 164.084 105.756C164.524 106.233 165.12 106.501 165.741 106.501Z" fill="#F9CC00"/>
<path d="M49.7897 12.4299C48.6356 12.4299 47.5287 12.9273 46.7126 13.8127C45.8964 14.698 45.438 15.8988 45.438 17.1509C45.438 15.8988 44.9795 14.698 44.1634 13.8127C43.3472 12.9273 42.2403 12.4299 41.0862 12.4299C42.2403 12.4299 43.3472 11.9326 44.1634 11.0472C44.9795 10.1619 45.438 8.96106 45.438 7.70898C45.438 8.96106 45.8964 10.1619 46.7126 11.0472C47.5287 11.9326 48.6356 12.4299 49.7897 12.4299Z" fill="#F9CC00"/>
<path d="M27.0045 140.914C25.596 140.914 24.2452 141.521 23.2492 142.601C22.2532 143.682 21.6937 145.147 21.6937 146.675C21.6937 145.147 21.1341 143.682 20.1382 142.601C19.1422 141.521 17.7913 140.914 16.3828 140.914C17.7913 140.914 19.1422 140.307 20.1382 139.226C21.1341 138.146 21.6937 136.68 21.6937 135.152C21.6937 136.68 22.2532 138.146 23.2492 139.226C24.2452 140.307 25.596 140.914 27.0045 140.914Z" fill="#F9CC00"/>
<path d="M136.469 58.4263C137.866 58.4263 138.998 57.1981 138.998 55.6829C138.998 54.1677 137.866 52.9395 136.469 52.9395C135.072 52.9395 133.94 54.1677 133.94 55.6829C133.94 57.1981 135.072 58.4263 136.469 58.4263Z" fill="#A06ECE"/>
<path d="M154.139 94.3385C154.936 94.3385 155.582 93.6375 155.582 92.7728C155.582 91.908 154.936 91.207 154.139 91.207C153.341 91.207 152.695 91.908 152.695 92.7728C152.695 93.6375 153.341 94.3385 154.139 94.3385Z" fill="#A06ECE"/>
<path d="M2.7963 166.008C3.99197 166.008 4.96125 164.956 4.96125 163.659C4.96125 162.362 3.99197 161.311 2.7963 161.311C1.60063 161.311 0.631348 162.362 0.631348 163.659C0.631348 164.956 1.60063 166.008 2.7963 166.008Z" fill="#A06ECE"/>
<path d="M3.87888 32.2149C5.40668 32.2149 6.64521 30.8713 6.64521 29.2139C6.64521 27.5565 5.40668 26.2129 3.87888 26.2129C2.35107 26.2129 1.11255 27.5565 1.11255 29.2139C1.11255 30.8713 2.35107 32.2149 3.87888 32.2149Z" fill="#A06ECE"/>
<path d="M36.2407 38.4791C37.0378 38.4791 37.684 37.7781 37.684 36.9134C37.684 36.0487 37.0378 35.3477 36.2407 35.3477C35.4435 35.3477 34.7974 36.0487 34.7974 36.9134C34.7974 37.7781 35.4435 38.4791 36.2407 38.4791Z" fill="#A06ECE"/>
</svg>
