<svg width="238" height="154" fill="none" xmlns="http://www.w3.org/2000/svg"><path d="M101.237 15.674S77.07-2.205 52.91.227C28.75 2.66 4.34 33.812 4.34 33.812l7.822 5.928s40.537-33.631 62.491-8.768c21.954 24.864 26.584-15.298 26.584-15.298z" fill="#7126B5"/><path opacity=".2" d="M101.237 15.674S77.07-2.205 52.91.227C28.75 2.66 4.34 33.812 4.34 33.812l7.822 5.928s40.537-33.631 62.491-8.768c21.954 24.864 26.584-15.298 26.584-15.298z" fill="#fff"/><path d="M0 13.18h82.983v53.614H0V13.18z" fill="#FFD200"/><path opacity=".45" d="M217.288 127.665a10.513 10.513 0 01-7.219-5.404v-.078l-37.033-70.524-20.382 14.43 14.414 45.316a7.754 7.754 0 01-4.122 9.386 7.76 7.76 0 01-3.629.711 763.117 763.117 0 00-34.694-.782c-62.507 0-113.18 7.282-113.18 16.268 0 8.987 50.673 16.276 113.18 16.276 62.506 0 113.141-7.281 113.141-16.252 0-3.489-7.579-6.703-20.476-9.347z" fill="#E6E6E6"/><path d="M99.517 131.678s1.157 3.91 4.591 4.372c3.433.461 4.153 3.91 1.001 4.614-3.152.704-10.95-3.715-10.95-3.715l.493-4.966 4.865-.305zM32.67 131.013s-3.974.861-4.693 4.247c-.72 3.387-4.208 3.84-4.693.641-.485-3.198 4.544-10.621 4.544-10.621l4.912.884-.07 4.849z" fill="#7126B5"/><path d="M33.2 72.62s-3.66 17.082 9.52 24.402c13.178 7.321 54.748-5.858 48.326 35.633h9.276s11.99-34.413-19.115-46.645l-9.44-10.707-38.566-2.683z" fill="#24285B"/><path d="M158.019 57.275l3.155 3.016-19.733 20.65-3.156-3.016 19.734-20.65z" fill="#FFD200"/><path opacity=".08" d="M158.019 57.275l3.155 3.016-19.733 20.65-3.156-3.016 19.734-20.65z" fill="#000"/><path d="M156.482 55.797l3.155 3.015-19.734 20.65-3.155-3.015 19.734-20.65z" fill="#FFD200"/><path d="M168.219 62.612c5.074-5.309 6.316-12.356 2.774-15.74-3.541-3.384-10.525-1.824-15.598 3.485s-6.315 12.356-2.774 15.74c3.542 3.385 10.525 1.824 15.598-3.485z" fill="#FFD200"/><path opacity=".08" d="M168.219 62.612c5.074-5.309 6.316-12.356 2.774-15.74-3.541-3.384-10.525-1.824-15.598 3.485s-6.315 12.356-2.774 15.74c3.542 3.385 10.525 1.824 15.598-3.485z" fill="#000"/><path d="M166.678 61.145c5.074-5.308 6.316-12.356 2.774-15.74-3.541-3.384-10.525-1.824-15.598 3.485-5.073 5.31-6.315 12.356-2.774 15.74 3.542 3.385 10.525 1.824 15.598-3.484z" fill="#FFD200"/><path opacity=".57" d="M164.502 59.066c3.351-3.507 4.172-8.162 1.833-10.397-2.339-2.236-6.952-1.205-10.303 2.302-3.352 3.507-4.172 8.162-1.833 10.398 2.339 2.235 6.952 1.204 10.303-2.303z" fill="#fff"/><path d="M133.938 17.606s-3.528 5.123-6.953 7.641a3.134 3.134 0 01-3.475.14 3.112 3.112 0 01-.897-.828c-1.244-1.744-2.417-4.466-.861-7.438l2.018-5.373a5.581 5.581 0 015.694-3.003c4.278.25 6.773 5.85 4.474 8.861z" fill="#F4A28C"/><path d="M125.005 12.85l-15.916 6.414 1.956 11.325 11.473-9.362 2.487-8.376z" fill="#F4A28C"/><path d="M132.584 16.824a25.053 25.053 0 01-4.145-3.989 5.203 5.203 0 01-3.621 4.396 4.223 4.223 0 01-5.006-1.948l5.162-6.1a6.35 6.35 0 016.07-2.347c.975.168 1.939.398 2.886.688 2.346.783 3.981 4.083 6.562 4.193a1.506 1.506 0 011.252.794 1.506 1.506 0 01-.04 1.482c-1.267 2.103-4.036 4.778-7.422 3.707a5.835 5.835 0 01-1.698-.876z" fill="#24285B"/><path d="M125.451 17.512s1.486-1.877 0-2.886c-1.486-1.009-3.668 1.697-1.986 3.504l1.986-.618zM131.552 20.719l-.188 2.948a1.005 1.005 0 01-.528.79 1.002 1.002 0 01-.95-.008l-2.12-1.173 3.786-2.557z" fill="#F4A28C"/><path opacity=".31" d="M121.229 22.267s.477-3.558 1.759-4.912c0 0-5.795 1.956-5.928 8.33l4.169-3.418z" fill="#CE8172"/><path opacity=".08" d="M16.159 65.409s-.25-36.893 44.064-44.69L34.186 66.793H16.198l-.04-1.384z" fill="#000"/><path d="M113.157 34.508l-1.314-7.642a18.668 18.668 0 00-11.192-14.172 33.117 33.117 0 00-7.891-2.072c-3.473-.485-8.338 0-13.781 1.43-23.448 6.156-40.655 26.022-44.213 49.97L33.2 72.62l38.567 2.683s-1.956-10.95 11.731-10.95 31.019.14 29.658-29.845z" fill="#7126B5"/><path opacity=".08" d="M75.365 22.658S56.65 25.951 36.08 55.593L33.2 72.62l29.267 2.174 12.897-52.136z" fill="#000"/><path d="M96.826 36.29c3.653-12.184-10.511-22.04-20.608-14.296-8.447 6.468-17.989 18.114-18.364 37.768-.65 35.47 33.326 29.126 79.306 15.54l-1.462-10.33s-55.061 10.41-47.584-7.486c3.128-7.484 6.773-14.711 8.712-21.195z" fill="#7126B5"/><path opacity=".2" d="M96.826 36.29c3.653-12.184-10.511-22.04-20.608-14.296-8.447 6.468-17.989 18.114-18.364 37.768-.65 35.47 33.326 29.126 79.306 15.54l-1.462-10.33s-55.061 10.41-47.584-7.486c3.128-7.484 6.773-14.711 8.712-21.195z" fill="#fff"/><path d="M77.5 86.096s1.134 39.223-44.76 46.559l-1.776-8.314s36.76-9.111 13.014-33.521L77.5 86.096z" fill="#24285B"/><path opacity=".08" d="M149.791 138.842c2.756 0 4.99-.826 4.99-1.846 0-1.019-2.234-1.846-4.99-1.846-2.755 0-4.989.827-4.989 1.846 0 1.02 2.234 1.846 4.989 1.846zM168.875 134.064c2.756 0 4.99-.827 4.99-1.846 0-1.02-2.234-1.846-4.99-1.846-2.756 0-4.99.826-4.99 1.846 0 1.019 2.234 1.846 4.99 1.846zM188.091 137.755c2.756 0 4.99-.826 4.99-1.846 0-1.019-2.234-1.846-4.99-1.846-2.756 0-4.99.827-4.99 1.846 0 1.02 2.234 1.846 4.99 1.846zM217.515 139.609c2.756 0 4.99-.827 4.99-1.846 0-1.02-2.234-1.846-4.99-1.846-2.756 0-4.99.826-4.99 1.846 0 1.019 2.234 1.846 4.99 1.846zM130.872 133.649c2.816 0 5.1-.848 5.1-1.893s-2.284-1.893-5.1-1.893-5.099.848-5.099 1.893 2.283 1.893 5.099 1.893z" fill="#000"/><path d="M135.979 66.958s12.654-1.338 13.765 3.605c1.111 4.943-1.314 7.563-12.702 3.911l-1.063-7.516zM9.91 66.793s1.822 7.384 9.119 5.827c7.297-1.556 2.088-10.613-9.12-5.827z" fill="#F4A28C"/></svg>