<svg width="276" height="194" fill="none" xmlns="http://www.w3.org/2000/svg"><path d="M224.987 128.419a3.45 3.45 0 00.638-2.856 3.46 3.46 0 00-1.783-2.322l.685-7.874-4.689-1.582-.81 11.133a3.476 3.476 0 003.86 4.808 3.48 3.48 0 002.098-1.306l.001-.001zM248.379 189.634h-4.219l-2.007-16.265h6.229l-.003 16.265z" fill="#D4C2A8"/><path d="M241.145 188.429h8.14v5.12h-13.264c0-1.358.539-2.66 1.501-3.621a5.126 5.126 0 013.623-1.499z" fill="#4B1979"/><path d="M238.801 178.842l-4.098 1.006-5.835-15.315 6.049-1.485 3.884 15.794z" fill="#D4C2A8"/><path d="M231.545 179.251l7.903-1.944 1.225 4.972-12.88 3.167a5.123 5.123 0 013.752-6.195z" fill="#4B1979"/><path d="M243.441 184.447a1.556 1.556 0 01-1.551-1.394l-4.855-45.199-4.226 13.822 5.985 21.589a1.554 1.554 0 01-.924 1.864l-4.759 1.902a1.569 1.569 0 01-1.227-.029 1.554 1.554 0 01-.827-.906l-7.336-21.026a19.013 19.013 0 01-1.046-7.153l1.024-22.691 26.965 1.14-.421 56.14a1.571 1.571 0 01-1.444 1.544l-5.237.395-.121.002z" fill="#4B1979"/><path d="M238.975 75.009c5.008 0 9.067-4.056 9.067-9.059 0-5.003-4.059-9.058-9.067-9.058s-9.067 4.055-9.067 9.058 4.059 9.059 9.067 9.059z" fill="#D4C2A8"/><path d="M245.643 127.843c-2.388 0-5.353-.195-8.423-.397-4.194-.276-8.53-.561-11.768-.374a2.57 2.57 0 01-2.3-1.001c-3.337-4.268 1.809-20.915 2.03-21.621l4.188-18.614.18.04-.18-.04c.923-4.094 3.866-7.114 7.683-7.88 3.574-.718 7.031.712 9.248 3.826.117.165.235.335.352.508 7.218 10.68 3.135 37.214 2.862 38.925.381.457 2.443 3.037 1.876 4.829-.23.729-.856 1.226-1.861 1.475a17.43 17.43 0 01-3.888.323l.001.001z" fill="#A06ECE"/><path d="M225.599 127.851c-.822 0-1.93-.303-3.423-.922-.642-.267-2.596-1.079-.224-21.787 1.165-10.172 2.834-20.274 2.851-20.374l.016-.098.09-.04c.043-.02 4.305-1.972 5.046-4.48.025-.087.054-.171.087-.253a2.302 2.302 0 012.862-1.404 2.422 2.422 0 011.825 2.761 16.957 16.957 0 01-1.474 4.718c-2.005 4.135-3.364 15.096-3.378 15.206-.076.936-1.896 23.115-2.247 24.798-.123.587-.348 1.307-1.009 1.656a2.163 2.163 0 01-1.022.221v-.002zM235.504 127.001a.745.745 0 01-.458-.157c-2.667-2.025 1.65-26.574 4.209-35.044.512-1.696.969-3.148 1.357-4.317.707-2.098 1.2-4.26 1.472-6.457.141-1.19.447-1.869.937-2.077.34-.145.738-.047 1.189.292 2.365-.117 4.663.848 6.792 1.91l1.917.956 2.151 38.044c-.061 2.428-4.851 4.142-6.94 4.251-3.356.176-9.381.722-12.035 2.401a1.107 1.107 0 01-.591.197v.001z" fill="#4B1979"/><path d="M223.522 119.863c-.032 0-.063 0-.096-.003l-4.344-.267a1.564 1.564 0 01-1.119-.576 1.554 1.554 0 01-.329-1.214l1.966-13.011 3.7-18.257a3.275 3.275 0 015.996-1.07c.414.67.575 1.463.454 2.24l-2.94 18.293-1.741 12.52a1.57 1.57 0 01-1.547 1.345z" fill="#4B1979"/><path d="M238.363 105.62a3.459 3.459 0 012.445-1.61 3.455 3.455 0 012.806.839l7.123-3.438 3.147 3.815-10.127 4.713a3.482 3.482 0 01-5.872-1.895 3.475 3.475 0 01.478-2.424z" fill="#D4C2A8"/><path d="M248.258 109.312a1.56 1.56 0 01-1.518-1.195l-1.034-4.297a1.552 1.552 0 01.716-1.704l6.239-3.73-3.189-11.668a3.962 3.962 0 012.685-4.853 3.974 3.974 0 014.917 2.573l3.521 10.742a6.476 6.476 0 01-2.37 7.293l-9.052 6.543a1.563 1.563 0 01-.915.296z" fill="#4B1979"/><path d="M180.848 0H6.158a6.168 6.168 0 00-4.352 1.804A6.156 6.156 0 000 6.152v18.78a6.156 6.156 0 001.806 4.348 6.168 6.168 0 004.352 1.804h174.69a6.157 6.157 0 006.157-6.152V6.152A6.157 6.157 0 00180.848 0zm5.509 24.932a5.508 5.508 0 01-1.616 3.89 5.52 5.52 0 01-3.893 1.615H6.158a5.52 5.52 0 01-3.894-1.615 5.51 5.51 0 01-1.616-3.89V6.152a5.51 5.51 0 011.616-3.89A5.52 5.52 0 016.158.648h174.69a5.52 5.52 0 013.893 1.614 5.508 5.508 0 011.616 3.89v18.78z" fill="#3F3D56"/><path d="M180.848 75.443H6.158a6.168 6.168 0 01-4.352-1.804A6.156 6.156 0 010 69.291v-18.78a6.156 6.156 0 011.806-4.348 6.168 6.168 0 014.352-1.804h174.69a6.157 6.157 0 016.157 6.152v18.78a6.157 6.157 0 01-6.157 6.152zM6.158 45.007a5.519 5.519 0 00-3.894 1.614 5.508 5.508 0 00-1.616 3.89v18.78a5.508 5.508 0 001.615 3.891 5.518 5.518 0 003.895 1.615h174.69a5.519 5.519 0 003.894-1.614 5.505 5.505 0 001.615-3.89V50.51a5.504 5.504 0 00-1.615-3.89 5.518 5.518 0 00-3.894-1.614H6.158zM180.848 119.803H6.158a6.17 6.17 0 01-4.352-1.804A6.158 6.158 0 010 113.651v-18.78a6.156 6.156 0 011.806-4.348 6.168 6.168 0 014.352-1.804h174.69a6.157 6.157 0 016.157 6.152v18.78a6.159 6.159 0 01-6.157 6.152zM6.158 89.365a5.519 5.519 0 00-3.894 1.614 5.508 5.508 0 00-1.616 3.89v18.78a5.508 5.508 0 001.616 3.891 5.52 5.52 0 003.894 1.614h174.69a5.52 5.52 0 003.894-1.614 5.504 5.504 0 001.615-3.89V94.87a5.517 5.517 0 00-5.509-5.506H6.158z" fill="#CCC"/><path d="M29.762 26.25a10.725 10.725 0 01-9.902-6.61 10.698 10.698 0 012.324-11.669 10.72 10.72 0 0111.68-2.321 10.7 10.7 0 013.477 17.464 10.723 10.723 0 01-7.579 3.136z" fill="#A06ECE"/><path d="M165.024 24.284H50.617a2.594 2.594 0 01-2.593-2.59 2.59 2.59 0 012.593-2.59h114.407a2.594 2.594 0 012.592 2.59 2.59 2.59 0 01-2.592 2.59zM127.75 13.276H50.614a2.594 2.594 0 01-2.592-2.59 2.59 2.59 0 012.592-2.591h77.136a2.594 2.594 0 012.593 2.59 2.59 2.59 0 01-2.593 2.59z" fill="#CCC"/><path d="M29.762 70.609a10.725 10.725 0 01-9.902-6.61 10.698 10.698 0 012.324-11.67 10.721 10.721 0 0111.68-2.32 10.7 10.7 0 013.477 17.464 10.723 10.723 0 01-7.579 3.136zM165.024 68.644H50.617a2.594 2.594 0 01-2.593-2.59 2.59 2.59 0 012.593-2.591h114.407a2.594 2.594 0 012.592 2.59 2.59 2.59 0 01-2.592 2.59zM127.75 57.635H50.614a2.594 2.594 0 01-2.592-2.59 2.59 2.59 0 012.592-2.59h77.136a2.594 2.594 0 012.593 2.59 2.59 2.59 0 01-2.593 2.59zM29.762 114.969a10.722 10.722 0 01-9.902-6.61 10.7 10.7 0 012.324-11.67 10.72 10.72 0 0111.68-2.32 10.715 10.715 0 016.616 9.892c0 2.84-1.13 5.564-3.14 7.572a10.723 10.723 0 01-7.578 3.136zM165.024 113.003H50.617a2.593 2.593 0 01-2.593-2.59 2.59 2.59 0 012.593-2.591h114.407a2.593 2.593 0 012.592 2.591 2.593 2.593 0 01-2.592 2.59zM127.75 101.994H50.614a2.59 2.59 0 110-5.18h77.136a2.594 2.594 0 012.593 2.59 2.592 2.592 0 01-2.593 2.59z" fill="#E6E6E6"/><path d="M29.215 19.308c-.266.001-.525-.085-.738-.244l-.013-.01-2.778-2.123a1.233 1.233 0 111.502-1.958l1.8 1.379 4.25-5.542a1.234 1.234 0 011.73-.229l-.025.037.026-.037a1.234 1.234 0 01.229 1.73l-5.002 6.515a1.234 1.234 0 01-.982.48l.001.002z" fill="#fff"/><path d="M275.631 194h-73.096a.37.37 0 110-.737h73.096a.371.371 0 01.369.369.369.369 0 01-.369.368z" fill="#CCC"/><path d="M242.308 68.365s-1.103-6.095-3.614-5.367c-2.511.728-8.973 1.473-8.985-1.397-.012-2.87 6.083-5.408 9.676-5.065 3.593.344 9.703 1.394 9.367 6.778a22.098 22.098 0 01-3.066 9.593l-3.378-4.542z" fill="#4B1979"/></svg>