<svg width="151" height="117" viewBox="0 0 151 117" fill="none" xmlns="http://www.w3.org/2000/svg">
<path fill-rule="evenodd" clip-rule="evenodd" d="M42.655 103.715V109.868V116.022H39.9611V114.528C39.1066 115.636 37.8101 116.332 36.0478 116.332C32.5736 116.332 29.8499 113.629 29.8499 109.868C29.8499 106.111 32.5736 103.405 36.0478 103.405C37.8101 103.405 39.1066 104.101 39.9611 105.209V103.715H42.655ZM36.383 105.928C34.051 105.928 32.6239 107.705 32.6239 109.868C32.6239 112.032 34.051 113.809 36.383 113.809C38.6111 113.809 40.1153 112.108 40.1153 109.868C40.1153 107.629 38.6111 105.928 36.383 105.928ZM133.691 109.868C133.691 107.705 135.118 105.928 137.45 105.928C139.681 105.928 141.183 107.629 141.183 109.868C141.183 112.108 139.681 113.809 137.45 113.809C135.118 113.809 133.691 112.032 133.691 109.868ZM143.725 98.7721V109.868V116.022H141.028V114.528C140.174 115.636 138.877 116.332 137.115 116.332C133.641 116.332 130.917 113.629 130.917 109.868C130.917 106.111 133.641 103.405 137.115 103.405C138.877 103.405 140.174 104.101 141.028 105.209V98.7721H143.725ZM76.0949 105.801C77.8305 105.801 78.9461 106.883 79.2309 108.787H72.8017C73.0894 107.01 74.1753 105.801 76.0949 105.801ZM69.9771 109.868C69.9771 106.031 72.5168 103.405 76.1483 103.405C79.6195 103.405 82.0049 106.031 82.0316 109.868C82.0316 110.228 82.0049 110.564 81.9782 110.897H72.7779C73.1665 113.113 74.7479 113.912 76.4835 113.912C77.7267 113.912 79.0499 113.446 80.0883 112.624L81.4086 114.608C79.9044 115.869 78.1954 116.332 76.3292 116.332C72.6206 116.332 69.9771 113.782 69.9771 109.868ZM108.677 109.868C108.677 107.705 110.104 105.928 112.436 105.928C114.665 105.928 116.169 107.629 116.169 109.868C116.169 112.108 114.665 113.809 112.436 113.809C110.104 113.809 108.677 112.032 108.677 109.868ZM118.708 103.715V109.868V116.022H116.015V114.528C115.157 115.636 113.864 116.332 112.101 116.332C108.627 116.332 105.903 113.629 105.903 109.868C105.903 106.111 108.627 103.405 112.101 103.405C113.864 103.405 115.157 104.101 116.015 105.209V103.715H118.708ZM93.4629 109.868C93.4629 113.603 96.0797 116.332 100.073 116.332C101.939 116.332 103.182 115.919 104.529 114.864L103.236 112.701C102.224 113.423 101.162 113.809 99.993 113.809C97.842 113.782 96.2607 112.238 96.2607 109.868C96.2607 107.499 97.842 105.955 99.993 105.928C101.162 105.928 102.224 106.314 103.236 107.036L104.529 104.873C103.182 103.818 101.939 103.405 100.073 103.405C96.0797 103.405 93.4629 106.134 93.4629 109.868ZM124.93 105.209C125.63 104.127 126.641 103.405 128.196 103.405C128.742 103.405 129.519 103.508 130.116 103.741L129.285 106.264C128.715 106.031 128.146 105.955 127.6 105.955C125.837 105.955 124.956 107.086 124.956 109.123V116.022H122.259V103.715H124.93V105.209ZM55.9791 104.693C54.6826 103.844 52.8965 103.405 50.9265 103.405C47.7876 103.405 45.7671 104.899 45.7671 107.346C45.7671 109.353 47.2713 110.591 50.0424 110.977L51.3152 111.156C52.7927 111.363 53.4899 111.749 53.4899 112.444C53.4899 113.396 52.5049 113.939 50.6654 113.939C48.7993 113.939 47.4523 113.346 46.5444 112.651L45.2746 114.734C46.7521 115.816 48.6183 116.332 50.6387 116.332C54.2168 116.332 56.2907 114.658 56.2907 112.315C56.2907 110.151 54.6589 109.02 51.962 108.634L50.6922 108.451C49.5262 108.298 48.5916 108.068 48.5916 107.242C48.5916 106.341 49.4728 105.801 50.9503 105.801C52.5316 105.801 54.0625 106.394 54.8132 106.856L55.9791 104.693ZM87.4759 105.209C88.1731 104.127 89.1848 103.405 90.7395 103.405C91.2854 103.405 92.0627 103.508 92.6591 103.741L91.8283 106.264C91.2587 106.031 90.689 105.955 90.1431 105.955C88.3808 105.955 87.4996 107.086 87.4996 109.123V116.022H84.8057V103.715H87.4759V105.209ZM67.7485 103.715H63.3427V99.9805H60.6191V103.715H58.1061V106.161H60.6191V111.775C60.6191 114.631 61.7347 116.332 64.9211 116.332C66.09 116.332 67.437 115.972 68.2915 115.38L67.5142 113.087C66.7101 113.55 65.829 113.782 65.1288 113.782C63.7818 113.782 63.3427 112.957 63.3427 111.722V106.161H67.7485V103.715ZM27.4673 108.298V116.022H24.7437V109.173C24.7437 107.086 23.8626 105.928 22.0231 105.928C20.2341 105.928 18.9909 107.063 18.9909 109.199V116.022H16.2673V109.173C16.2673 107.086 15.3624 105.928 13.5734 105.928C11.731 105.928 10.5383 107.063 10.5383 109.199V116.022H7.81763L7.81763 103.715H10.5145V105.232C11.5262 103.791 12.8198 103.405 14.143 103.405C16.0359 103.405 17.3829 104.23 18.2373 105.595C19.3796 103.868 21.0114 103.379 22.5927 103.405C25.6012 103.432 27.4673 105.389 27.4673 108.298Z" fill="#231F20"/>
<path d="M95.9164 82.8014H55.0861V9.91016H95.9164V82.8014Z" fill="#FF5F00"/>
<path d="M57.6764 46.3572C57.6764 31.5709 64.6456 18.3996 75.4985 9.91158C67.562 3.70468 57.5458 0 46.6603 0C20.8899 0 0 20.7545 0 46.3572C0 71.9599 20.8899 92.7144 46.6603 92.7144C57.5458 92.7144 67.562 89.0097 75.4985 82.8028C64.6456 74.3147 57.6764 61.1435 57.6764 46.3572Z" fill="#EB001B"/>
<path d="M151 46.3572C151 71.9599 130.11 92.7144 104.34 92.7144C93.4542 92.7144 83.4379 89.0097 75.4985 82.8028C86.3544 74.3147 93.3236 61.1435 93.3236 46.3572C93.3236 31.5709 86.3544 18.3996 75.4985 9.91158C83.4379 3.70468 93.4542 0 104.34 0C130.11 0 151 20.7545 151 46.3572Z" fill="#F79E1B"/>
</svg>
