<svg width="193" height="45" viewBox="0 0 193 45" fill="none" xmlns="http://www.w3.org/2000/svg">
<path fill-rule="evenodd" clip-rule="evenodd" d="M22.2468 45C34.5017 45 44.4937 34.8913 44.4937 22.5C44.4937 10.1087 34.5017 0 22.2468 0C9.99197 0 0 10.1087 0 22.5C0 34.8943 9.99496 45 22.2468 45Z" fill="#00ADD9"/>
<path fill-rule="evenodd" clip-rule="evenodd" d="M9.42467 27.5512C9.70529 31.2378 11.9831 34.0729 16.1865 34.2722C20.2287 34.4654 24.2678 34.5288 28.307 34.2722C32.0178 34.0397 34.7882 31.2378 35.0688 27.5512C35.2151 25.6611 35.2748 23.771 35.2569 21.8839C34.3225 16.7843 30.0923 16.6031 29.6952 16.5971H29.6833H29.6713H29.6683H15.4491C14.9506 16.5971 14.5416 16.1834 14.5416 15.6792C14.5416 15.1719 14.9476 14.7613 15.4491 14.7613H29.7131C29.5818 11.3434 25.8471 10.7033 24.0678 10.5946L23.1453 10.5735H23.1424C20.8198 10.5403 18.5031 10.5946 16.1865 10.7788C11.8995 11.117 9.70529 13.8132 9.42467 17.4998C9.16793 20.8513 9.16793 24.1997 9.42467 27.5512ZM30.8267 25.6128V26.8356C30.8267 27.2915 30.4565 27.6659 30.0057 27.6659C29.5549 27.6659 29.1847 27.2915 29.1847 26.8356V25.6097C28.8235 25.3652 28.5876 24.9606 28.5876 24.5077C28.5876 23.7589 29.2235 23.155 30.0057 23.155C30.7878 23.155 31.4237 23.7619 31.4237 24.5077C31.4237 24.9636 31.1879 25.3652 30.8267 25.6128Z" fill="white"/>
<path fill-rule="evenodd" clip-rule="evenodd" d="M156.725 20.462L156.713 24.526C156.713 24.526 155.34 27.2554 150.596 27.9257C145.852 28.593 145.849 25.6069 146.193 24.837C146.536 24.064 147.652 23.0012 151.578 22.352C155.767 21.6576 156.725 20.462 156.725 20.462ZM162.313 16.5489C162.313 10.2627 156.337 7.33393 150.987 7.85326C146.007 8.33937 141.825 10.6884 140.538 15.945L145.694 17.2283C147.324 12.5181 153.429 11.1383 156.014 14.5048C156.707 15.4197 156.417 16.3738 155.399 16.9052C153.883 17.6963 150.987 17.4668 148.035 18.285C135.55 21.7482 139.479 33.2941 149.823 32.9982C153.134 32.9046 155.519 31.3738 157.137 29.843L157.191 32.4155H162.31V16.5489H162.313ZM64.6029 13.6836C60.8503 13.6836 57.8023 16.7754 57.8023 20.5948C57.8023 24.4112 60.8473 27.506 64.6029 27.506C68.3615 27.506 71.4065 24.4142 71.4065 20.5948C71.4065 16.7754 68.3615 13.6836 64.6029 13.6836ZM77.9295 8.59601V28.3363V31.9354C77.9295 40.0996 72.3111 45 65.1701 45C60.3189 45 56.7694 43.8466 53.3243 40.0362L57.5575 36.1866C59.6025 38.6232 62.0624 39.212 65.0806 39.212C68.7078 39.212 71.4035 36.2591 71.4035 32.6389V30.2446C69.3048 32.0954 66.5852 33.2126 63.6148 33.2126C56.9724 33.2126 51.5868 27.6268 51.5868 20.7367C51.5868 13.8466 56.9724 8.26087 63.6148 8.26087C66.5852 8.26087 69.3048 9.37802 71.4035 11.2289V8.59601H77.9295ZM193 8.20652L186.008 8.19444L179.097 23.5205L171.126 8.19142H164.114L175.628 30.0302L169.544 42.7053H176.557L193 8.20652ZM124.704 13.6836C128.457 13.6836 131.502 16.7754 131.502 20.5948C131.502 24.4112 128.457 27.506 124.704 27.506C120.945 27.506 117.9 24.4142 117.9 20.5948C117.9 16.7754 120.945 13.6836 124.704 13.6836ZM111.377 8.59601H117.903V11.2349C120.002 9.38405 122.722 8.2669 125.692 8.2669C132.335 8.2669 137.72 13.8527 137.72 20.7428C137.72 27.6328 132.332 33.2186 125.692 33.2186C122.722 33.2186 120.002 32.1014 117.903 30.2506V42.7083H111.377V8.59601ZM93.9788 13.4934C98.0687 13.4934 101.385 16.7391 101.385 20.7428C101.385 24.7494 98.0717 27.9952 93.9788 27.9952C89.8888 27.9952 86.5751 24.7494 86.5751 20.7428C86.5721 16.7391 89.8859 13.4934 93.9788 13.4934ZM93.9788 7.80797C86.6826 7.80797 80.7656 13.602 80.7656 20.7458C80.7656 27.8925 86.6796 33.6836 93.9788 33.6836C101.278 33.6836 107.192 27.8925 107.192 20.7458C107.189 13.599 101.275 7.80797 93.9788 7.80797Z" fill="black"/>
</svg>
