<svg width="84" height="84" viewBox="0 0 84 84" fill="none" xmlns="http://www.w3.org/2000/svg">
<path fill-rule="evenodd" clip-rule="evenodd" d="M84 42C84 65.196 65.196 84 42 84C18.804 84 0 65.196 0 42C0 18.804 18.804 0 42 0C65.196 0 84 18.804 84 42ZM52.0909 26.3956C57.9333 28.4018 62.2069 31.406 61.3685 36.9967C60.7595 41.0906 58.4816 43.0706 55.455 43.7639C59.6074 45.9172 61.0225 50.0038 59.7076 54.9453C57.2109 62.0565 51.2762 62.6552 43.3827 61.1689L41.466 68.8131L36.8391 67.663L38.7294 60.1211C37.5298 59.8244 36.3039 59.5066 35.041 59.1679L33.1428 66.7465L28.5211 65.5963L30.4352 57.9363L21.1154 55.5939L23.4143 50.3157C23.4143 50.3157 26.8259 51.2164 26.7784 51.1508C28.0887 51.4738 28.6714 50.6229 28.9008 50.0583L34.0946 29.3104C34.1526 28.3309 33.8125 27.0967 31.9379 26.6293C32.0091 26.5794 28.5765 25.7969 28.5765 25.7969L29.8077 20.8731L39.1407 23.1761L41.0389 15.6028L45.6633 16.753L43.8046 24.1766C45.049 24.4576 46.2986 24.7438 47.514 25.0458L49.3596 17.6694L53.9865 18.8196L52.0909 26.3956ZM41.0197 39.0288C44.1715 39.8644 51.0299 41.6826 52.2253 36.9152C53.4449 32.0374 46.7817 30.5642 43.5192 29.8429L43.5191 29.8429C43.1494 29.7612 42.8234 29.6891 42.5575 29.6228L40.2533 38.8295C40.4727 38.8838 40.7306 38.9521 41.0197 39.0288ZM37.4486 53.8519C41.2237 54.8462 49.48 57.021 50.7937 51.7677C52.1384 46.3963 44.1334 44.6072 40.2275 43.7342L40.2274 43.7342L40.2271 43.7341C39.7909 43.6366 39.4058 43.5505 39.0906 43.4722L36.549 53.619C36.807 53.6829 37.1092 53.7625 37.4475 53.8516L37.4486 53.8519Z" fill="#F7931A"/>
</svg>
