<svg width="20" height="20" fill="none" xmlns="http://www.w3.org/2000/svg"><g clip-path="url(#prefix__clip0_139_5537)"><path fill-rule="evenodd" clip-rule="evenodd" d="M5.244 1.911a.833.833 0 011.178 0l3.334 3.333a.833.833 0 11-1.179 1.179l-1.91-1.91v11.32a.833.833 0 01-1.667 0V4.514l-1.91 1.91a.833.833 0 11-1.18-1.179l3.334-3.333zm8.922 1.423c.46 0 .834.373.834.833v11.322l1.91-1.911a.833.833 0 011.18 1.178l-3.334 3.334a.833.833 0 01-1.179 0l-3.333-3.334a.833.833 0 011.178-1.178l1.911 1.91V4.168c0-.46.373-.833.833-.833z" fill="#7126B5"/></g><defs><clipPath id="prefix__clip0_139_5537"><path fill="#fff" transform="translate(1.667 1.667)" d="M0 0h16.667v16.667H0z"/></clipPath></defs></svg>