<svg width="95" height="89" viewBox="0 0 95 89" fill="none" xmlns="http://www.w3.org/2000/svg">
<path d="M18.1657 11.2205C18.2989 11.3549 18.4321 11.4221 18.6319 11.4221C18.7651 11.4221 18.8317 11.4221 18.9648 11.3549L20.1635 10.4814V11.4893C20.1635 11.758 20.4299 12.0268 20.6963 12.0268C20.9626 12.0268 21.229 11.758 21.229 11.4893V10.4814L22.4277 11.3549C22.4943 11.4221 22.6274 11.4221 22.7606 11.4221C22.9604 11.4221 23.0936 11.3549 23.2268 11.2205C23.4266 10.9518 23.36 10.6158 23.0936 10.4814L21.6285 9.4736L23.0936 8.46576C23.36 8.26419 23.4266 7.92825 23.2268 7.72668C23.027 7.45792 22.694 7.39073 22.4943 7.5923L21.2956 8.46576V7.45792C21.2956 7.18917 21.0292 6.92041 20.7628 6.92041C20.4965 6.92041 20.2301 7.18917 20.2301 7.45792V8.46576L19.0314 7.5923C18.7651 7.39073 18.4321 7.45792 18.2989 7.72668C18.0991 7.99544 18.1657 8.33138 18.4321 8.46576L19.8971 9.4736L18.4321 10.4814C18.0325 10.6158 17.966 10.9518 18.1657 11.2205Z" fill="#082F49"/>
<path d="M41.2067 11.2205C41.3399 11.3549 41.4731 11.4221 41.6729 11.4221C41.8061 11.4221 41.8727 11.4221 42.0059 11.3549L43.2045 10.4814V11.4893C43.2045 11.758 43.4709 12.0268 43.7373 12.0268C44.0036 12.0268 44.27 11.758 44.27 11.4893V10.4814L45.4687 11.3549C45.5353 11.4221 45.6685 11.4221 45.8016 11.4221C46.0014 11.4221 46.1346 11.3549 46.2678 11.2205C46.4676 10.9518 46.401 10.6158 46.1346 10.4814L44.6696 9.4736L46.1346 8.46576C46.401 8.26419 46.4676 7.92825 46.2678 7.72668C46.068 7.45792 45.735 7.39073 45.5353 7.5923L44.3366 8.46576V7.45792C44.3366 7.18917 44.0702 6.92041 43.8039 6.92041C43.5375 6.92041 43.2711 7.18917 43.2711 7.45792V8.46576L42.0725 7.5923C41.8061 7.39073 41.4731 7.45792 41.3399 7.72668C41.1402 7.99544 41.2067 8.33138 41.4731 8.46576L42.9382 9.4736L41.4731 10.4814C41.0736 10.6158 41.007 10.9518 41.2067 11.2205Z" fill="#082F49"/>
<path d="M70.3078 7.05499C70.441 7.18937 70.5742 7.25656 70.774 7.25656C70.9072 7.25656 70.9737 7.25656 71.1069 7.18937L72.3056 6.31591V7.32375C72.3056 7.59251 72.572 7.86127 72.8383 7.86127C73.1047 7.86127 73.3711 7.59251 73.3711 7.32375V6.31591L74.5697 7.18937C74.6363 7.25656 74.7695 7.25656 74.9027 7.25656C75.1025 7.25656 75.2357 7.18937 75.3689 7.05499C75.5686 6.78624 75.502 6.45029 75.2357 6.31591L73.7706 5.30807L75.2357 4.30024C75.502 4.09867 75.5686 3.76272 75.3689 3.56115C75.1691 3.2924 74.8361 3.22521 74.6363 3.42678L73.4377 4.30024V3.2924C73.4377 3.02364 73.1713 2.75488 72.9049 2.75488C72.6386 2.75488 72.3722 3.02364 72.3722 3.2924V4.30024L71.1735 3.42678C70.9072 3.22521 70.5742 3.2924 70.441 3.56115C70.2412 3.82991 70.3078 4.16586 70.5742 4.30024L72.0392 5.30807L70.5742 6.31591C70.1746 6.45029 70.108 6.85343 70.3078 7.05499Z" fill="#082F49"/>
<path d="M77.2336 40.5149L75.7685 39.5071L77.2336 38.4993C77.5 38.2977 77.5666 37.9617 77.3668 37.7602C77.167 37.4914 76.834 37.4242 76.6343 37.6258L75.4356 38.4993V37.4242C75.4356 37.1555 75.1692 36.8867 74.9028 36.8867C74.6365 36.8867 74.3701 37.1555 74.3701 37.4242V38.4321L73.1714 37.5586C72.9051 37.357 72.5721 37.4242 72.4389 37.693C72.3057 37.9617 72.3057 38.2977 72.5721 38.4321L74.0371 39.4399L72.5721 40.4477C72.3057 40.6493 72.2391 40.9853 72.4389 41.1868C72.5721 41.3212 72.7053 41.3884 72.9051 41.3884C73.0382 41.3884 73.1048 41.3884 73.238 41.3212L74.4367 40.4477V41.4556C74.4367 41.7243 74.7031 41.9931 74.9694 41.9931C75.2358 41.9931 75.5022 41.7243 75.5022 41.4556V40.4477L76.7008 41.3212C76.7674 41.3884 76.9006 41.3884 77.0338 41.3884C77.2336 41.3884 77.3668 41.3212 77.5 41.1868C77.5 41.0525 77.4334 40.7165 77.2336 40.5149Z" fill="#082F49"/>
<path d="M48.1106 47.8063C47.9108 47.5375 47.5779 47.4703 47.3781 47.6719L46.1794 48.5454V47.5375C46.1794 47.2688 45.9131 47 45.6467 47C45.3803 47 45.1139 47.2688 45.1139 47.5375V48.5454L43.8487 47.6719C43.5823 47.4703 43.2493 47.5375 43.1162 47.8063C42.9164 48.075 42.983 48.411 43.2493 48.5454L44.7144 49.5532L43.2493 50.561C42.983 50.7626 42.9164 51.0985 43.1162 51.3001C43.2493 51.4345 43.3825 51.5017 43.5823 51.5017C43.7155 51.5017 43.7821 51.5017 43.9153 51.4345L45.1139 50.561V51.5689C45.1139 51.8376 45.3803 52.1064 45.6467 52.1064C45.9131 52.1064 46.1794 51.8376 46.1794 51.5689V50.561L47.3781 51.4345C47.4447 51.5017 47.5779 51.5017 47.7111 51.5017C47.9108 51.5017 48.044 51.4345 48.1772 51.3001C48.377 51.0314 48.3104 50.6954 48.044 50.561L46.579 49.5532L48.044 48.5454C48.1772 48.3438 48.2438 48.0078 48.1106 47.8063Z" fill="#082F49"/>
<path d="M31.3514 6.31597C31.9031 6.31597 32.3503 5.86475 32.3503 5.30813C32.3503 4.75152 31.9031 4.30029 31.3514 4.30029C30.7998 4.30029 30.3525 4.75152 30.3525 5.30813C30.3525 5.86475 30.7998 6.31597 31.3514 6.31597Z" fill="#082F49"/>
<path d="M56.9227 8.86919C57.4744 8.86919 57.9216 8.41797 57.9216 7.86135C57.9216 7.30474 57.4744 6.85352 56.9227 6.85352C56.371 6.85352 55.9238 7.30474 55.9238 7.86135C55.9238 8.41797 56.371 8.86919 56.9227 8.86919Z" fill="#082F49"/>
<path d="M47.6 2.01568C48.1516 2.01568 48.5989 1.56445 48.5989 1.00784C48.5989 0.451225 48.1516 0 47.6 0C47.0483 0 46.6011 0.451225 46.6011 1.00784C46.6011 1.56445 47.0483 2.01568 47.6 2.01568Z" fill="#082F49"/>
<path d="M18.9989 21.0157C19.5506 21.0157 19.9978 20.5645 19.9978 20.0078C19.9978 19.4512 19.5506 19 18.9989 19C18.4472 19 18 19.4512 18 20.0078C18 20.5645 18.4472 21.0157 18.9989 21.0157Z" fill="#082F49"/>
<path d="M69.7089 30.8399C70.2605 30.8399 70.7077 30.3887 70.7077 29.8321C70.7077 29.2754 70.2605 28.8242 69.7089 28.8242C69.1572 28.8242 68.71 29.2754 68.71 29.8321C68.71 30.3887 69.1572 30.8399 69.7089 30.8399Z" fill="#082F49"/>
<path d="M40.9989 43.0157C41.5506 43.0157 41.9978 42.5645 41.9978 42.0078C41.9978 41.4512 41.5506 41 40.9989 41C40.4472 41 40 41.4512 40 42.0078C40 42.5645 40.4472 43.0157 40.9989 43.0157Z" fill="#082F49"/>
<path d="M32.9989 50.0157C33.5506 50.0157 33.9978 49.5645 33.9978 49.0078C33.9978 48.4512 33.5506 48 32.9989 48C32.4472 48 32 48.4512 32 49.0078C32 49.5645 32.4472 50.0157 32.9989 50.0157Z" fill="#082F49"/>
<path d="M61.9989 43.0157C62.5506 43.0157 62.9978 42.5645 62.9978 42.0078C62.9978 41.4512 62.5506 41 61.9989 41C61.4472 41 61 41.4512 61 42.0078C61 42.5645 61.4472 43.0157 61.9989 43.0157Z" fill="#082F49"/>
<path d="M75.2358 14.983C74.7031 13.7736 71.5732 13.6392 70.0416 13.6392C69.6421 13.3705 68.7098 12.9673 66.8452 13.2361C65.9129 13.3705 61.1182 15.8565 54.3923 19.5519C52.5943 19.5519 32.5499 19.8206 26.7564 17.7378C26.3568 17.5362 25.8907 17.6034 25.5577 17.8721C25.2913 18.0737 25.2248 18.4097 25.2913 18.6784C25.3579 19.0816 25.5577 20.1566 31.2847 21.8363C30.7519 22.1723 30.3524 22.6426 30.5522 23.2473C30.6853 23.7176 31.1515 23.852 31.6842 23.852C32.0172 23.852 32.3502 23.7848 32.6165 23.7176C33.4156 23.5832 34.4145 23.3145 34.8141 22.9113C34.9473 22.9785 35.0805 22.9785 35.2137 23.0457C34.5477 23.3817 33.8818 23.9192 34.1482 24.6583C34.2814 25.1286 34.7475 25.263 35.2802 25.263C35.6132 25.263 35.9462 25.1958 36.2125 25.1286C37.0782 24.927 38.0771 24.6583 38.5433 24.2551C38.6765 24.3223 38.8097 24.3895 38.9428 24.3895C38.2103 24.7255 37.4112 25.3302 37.611 26.1364C37.7442 26.6068 38.2103 26.7411 38.7431 26.7411C39.076 26.7411 39.409 26.6739 39.6754 26.6068C40.5411 26.4724 41.4734 26.2036 41.9395 25.7333C42.2059 25.8677 42.4057 26.002 42.6054 26.0692C42.2725 26.2036 42.0061 26.4052 41.6731 26.5396C37.0117 29.1599 33.3491 31.1756 32.4834 31.5788C30.419 32.5194 25.4911 30.5037 23.7597 29.6975C23.6931 29.6303 23.5599 29.6303 23.4267 29.6303L18.6987 30.3022C18.4989 30.3022 18.2991 30.5037 18.2325 30.6381C18.1659 30.8397 18.2325 31.0412 18.3657 31.1756C18.5655 31.3772 19.3646 32.1835 20.2969 33.1913C17.9661 33.796 17.7664 34.1991 17.6332 34.3335C17.5 34.6023 17.5 34.7367 17.5 34.9382C17.5666 35.2742 17.6998 35.6773 23.6931 37.357C23.7597 37.357 23.7597 37.357 23.8263 37.357C23.7597 37.7602 23.8263 38.1633 24.0261 38.4992C24.359 39.1711 25.0916 39.6415 26.2902 39.9102L27.1559 45.8901C27.1559 46.0244 27.2225 46.0916 27.2891 46.226C27.4223 46.3604 27.7553 46.4948 28.0882 46.4948C28.4212 46.4948 28.7542 46.3604 29.1537 46.0244C29.6199 45.6213 30.8185 42.665 31.9506 39.7087C36.1459 38.8352 41.8729 36.5508 49.0649 32.8554C49.5977 33.7288 50.2636 34.6695 50.6631 35.2742C51.1959 36.0804 51.5954 39.3055 51.7286 41.4556L49.9306 41.7915C49.7974 41.7915 49.6643 41.9259 49.5311 42.0603C49.4645 42.1947 49.4645 42.3962 49.5311 42.5306C49.864 43.4041 51.1293 44.8822 53.2603 44.8822C53.3269 44.8822 53.46 44.8822 53.5932 44.8822C54.126 44.8822 55.0583 44.815 56.8563 39.104C56.9229 39.104 56.9229 39.104 56.9895 39.104C56.9895 39.104 56.9895 39.104 57.056 39.104C57.9883 39.0368 58.7209 38.5664 59.0538 37.8274C59.3202 37.2227 59.2536 36.6179 58.9206 36.1476C58.6543 35.8117 58.3213 35.6101 57.9217 35.6101C57.9883 35.3414 58.0549 35.0726 58.1215 34.7367C58.9872 34.6023 59.6532 34.1991 59.9195 33.5272C60.1859 32.9225 60.1193 32.3178 59.7863 31.8475C59.5866 31.5788 59.3202 31.3772 58.9872 31.31C59.0538 31.1756 59.0538 30.9741 59.1204 30.8397C59.9861 30.7053 60.5855 30.3022 60.9184 29.6303C61.1848 29.0256 61.1182 28.4209 60.7852 27.9505C60.5855 27.6818 60.2525 27.4802 59.9195 27.413C59.9195 27.2786 59.9861 27.1443 59.9861 27.0771C61.6509 26.1364 63.116 25.263 64.4478 24.5239C66.2458 23.516 67.6443 22.6426 68.51 22.2395C73.9706 19.2159 75.9018 16.394 75.2358 14.983ZM31.8174 22.7098C32.0838 22.5754 32.4168 22.3738 32.7497 22.2395C32.8829 22.3066 33.0827 22.3066 33.2159 22.3738C32.8163 22.5754 32.217 22.7098 31.8174 22.7098ZM35.4134 24.1879C35.6798 24.0536 36.0128 23.852 36.3457 23.7176C36.4123 23.6504 36.5455 23.6504 36.6121 23.516C36.8119 23.5832 37.0117 23.6504 37.2114 23.7176C36.6787 23.9192 35.9462 24.1207 35.4134 24.1879ZM38.8762 25.5989C39.1426 25.4645 39.4756 25.263 39.8085 25.1286C39.9417 25.0614 40.0083 24.9942 40.0749 24.8598C40.2747 24.927 40.4745 25.0614 40.6742 25.1286C40.1415 25.3973 39.3424 25.5989 38.8762 25.5989ZM32.0172 20.8957C28.8873 20.0222 27.4889 19.2831 26.823 18.88C32.2836 20.6269 46.8008 20.6941 52.3946 20.6269C49.7309 22.1051 46.8008 23.7176 43.6709 25.4645C42.6054 24.927 38.7431 22.8442 32.0172 20.8957ZM21.096 34.1991C21.6953 34.8038 22.3613 35.4757 22.894 36.0132C21.429 35.5429 19.9639 35.0726 19.0982 34.8038C19.631 34.6023 20.3635 34.4007 21.096 34.1991ZM57.5222 36.8195C57.722 36.8195 57.8552 36.8195 57.9217 36.9539C58.0549 37.0883 58.0549 37.357 57.9217 37.5586C57.7886 37.8274 57.5222 38.0289 57.056 38.1633C57.2558 37.693 57.389 37.2898 57.5222 36.8195ZM58.854 32.5866C58.9872 32.721 58.9872 32.9897 58.854 33.1913C58.7875 33.3929 58.5877 33.5944 58.3213 33.6616C58.3213 33.5272 58.3879 33.4601 58.3879 33.3929C58.4545 33.0569 58.5211 32.7882 58.5877 32.5194C58.7209 32.5194 58.7875 32.5194 58.854 32.5866ZM59.7198 28.6896C59.8529 28.824 59.8529 29.0928 59.7198 29.2943C59.6532 29.4959 59.4534 29.6975 59.187 29.7646C59.2536 29.3615 59.3868 28.9584 59.4534 28.5552C59.5866 28.5552 59.7198 28.6224 59.7198 28.6896ZM67.7775 21.2988C66.9118 21.7691 65.5133 22.5754 63.7153 23.6504C62.6498 24.2551 61.4512 24.9942 60.1193 25.7333C60.5189 23.7176 60.7852 22.3066 60.7852 22.3066C60.8518 22.0379 60.6521 21.7019 60.3857 21.7019C60.1193 21.6347 59.7863 21.8363 59.7863 22.1051C59.7863 22.1723 58.7875 27.5474 57.4556 32.9897C54.9251 43.4041 53.7264 43.9416 53.5932 44.0088C52.2614 44.076 51.3957 43.4041 50.9961 42.9337L52.4612 42.665C52.7275 42.5978 52.9273 42.3962 52.9273 42.1275C52.9273 41.5228 52.5943 36.282 51.662 34.9382C50.7963 33.6616 48.9983 30.8397 48.9983 30.7725C48.8651 30.5037 48.5322 30.4365 48.2658 30.5709C47.9994 30.7053 47.9329 31.0412 48.066 31.31C48.066 31.3772 48.2658 31.6459 48.5988 32.1163C41.9395 35.5429 36.4789 37.693 32.4834 38.6336C32.9495 37.357 33.4156 36.1476 33.7486 35.2742C33.8818 35.0054 33.682 34.6695 33.4156 34.6023C33.1493 34.4679 32.8163 34.6695 32.7497 34.9382C32.217 36.3492 31.6842 37.8274 31.1515 39.1711C29.9528 42.329 28.8873 44.9494 28.5544 45.2854C28.4212 45.4197 28.288 45.4869 28.2214 45.4869L27.0893 37.6258C27.0228 37.357 26.7564 37.1555 26.49 37.1555C26.2236 37.2227 26.0239 37.4914 26.0239 37.7602L26.157 38.8352C25.5577 38.6336 25.1582 38.4321 25.025 38.0961C24.8918 37.7602 24.9584 37.4242 25.0916 37.1555C25.2247 36.9539 25.1582 36.6179 24.9584 36.4836C24.692 36.282 23.227 34.8038 21.6953 33.2585C21.096 32.6538 20.4301 31.9819 19.8973 31.3772L23.4267 30.9069C24.4922 31.3772 30.2192 34.0648 32.9495 32.721C33.8818 32.3178 37.5444 30.235 42.2059 27.6146C42.7386 27.2786 43.338 26.9427 43.9373 26.6068C52.7941 21.7019 65.7131 14.5127 67.0449 14.3783C68.9095 14.1096 69.5755 14.5799 69.5755 14.5799C69.7087 14.7143 69.8418 14.7143 69.975 14.7143C72.0394 14.7143 74.1038 15.0502 74.3701 15.3861C74.5033 15.9237 73.3712 18.2753 67.7775 21.2988Z" fill="#082F49"/>
<path d="M7.296 78.2744C6.176 78.2744 5.168 78.0824 4.272 77.6984C3.376 77.2984 2.672 76.7384 2.16 76.0184C1.648 75.2984 1.392 74.4584 1.392 73.4984H4.32C4.384 74.2184 4.664 74.8104 5.16 75.2744C5.672 75.7384 6.384 75.9704 7.296 75.9704C8.24 75.9704 8.976 75.7464 9.504 75.2984C10.032 74.8344 10.296 74.2424 10.296 73.5224C10.296 72.9624 10.128 72.5064 9.792 72.1544C9.472 71.8024 9.064 71.5304 8.568 71.3384C8.088 71.1464 7.416 70.9384 6.552 70.7144C5.464 70.4264 4.576 70.1384 3.888 69.8504C3.216 69.5464 2.64 69.0824 2.16 68.4584C1.68 67.8344 1.44 67.0024 1.44 65.9624C1.44 65.0024 1.68 64.1624 2.16 63.4424C2.64 62.7224 3.312 62.1704 4.176 61.7864C5.04 61.4024 6.04 61.2104 7.176 61.2104C8.792 61.2104 10.112 61.6184 11.136 62.4344C12.176 63.2344 12.752 64.3384 12.864 65.7464H9.84C9.792 65.1384 9.504 64.6184 8.976 64.1864C8.448 63.7544 7.752 63.5384 6.888 63.5384C6.104 63.5384 5.464 63.7384 4.968 64.1384C4.472 64.5384 4.224 65.1144 4.224 65.8664C4.224 66.3784 4.376 66.8024 4.68 67.1384C5 67.4584 5.4 67.7144 5.88 67.9064C6.36 68.0984 7.016 68.3064 7.848 68.5304C8.952 68.8344 9.848 69.1384 10.536 69.4424C11.24 69.7464 11.832 70.2184 12.312 70.8584C12.808 71.4824 13.056 72.3224 13.056 73.3784C13.056 74.2264 12.824 75.0264 12.36 75.7784C11.912 76.5304 11.248 77.1384 10.368 77.6024C9.504 78.0504 8.48 78.2744 7.296 78.2744ZM23.1244 64.6664C24.1324 64.6664 25.0284 64.8824 25.8124 65.3144C26.6124 65.7464 27.2364 66.3864 27.6844 67.2344C28.1484 68.0824 28.3804 69.1064 28.3804 70.3064V78.1064H25.6684V70.7144C25.6684 69.5304 25.3724 68.6264 24.7804 68.0024C24.1884 67.3624 23.3804 67.0424 22.3564 67.0424C21.3324 67.0424 20.5164 67.3624 19.9084 68.0024C19.3164 68.6264 19.0204 69.5304 19.0204 70.7144V78.1064H16.2844V60.3464H19.0204V66.4184C19.4844 65.8584 20.0684 65.4264 20.7724 65.1224C21.4924 64.8184 22.2764 64.6664 23.1244 64.6664ZM33.2623 63.1304C32.7663 63.1304 32.3503 62.9624 32.0143 62.6264C31.6783 62.2904 31.5103 61.8744 31.5103 61.3784C31.5103 60.8824 31.6783 60.4664 32.0143 60.1304C32.3503 59.7944 32.7663 59.6264 33.2623 59.6264C33.7423 59.6264 34.1503 59.7944 34.4863 60.1304C34.8223 60.4664 34.9903 60.8824 34.9903 61.3784C34.9903 61.8744 34.8223 62.2904 34.4863 62.6264C34.1503 62.9624 33.7423 63.1304 33.2623 63.1304ZM34.6063 64.8824V78.1064H31.8703V64.8824H34.6063ZM44.8704 64.6664C45.9104 64.6664 46.8384 64.8824 47.6544 65.3144C48.4864 65.7464 49.1344 66.3864 49.5984 67.2344C50.0624 68.0824 50.2944 69.1064 50.2944 70.3064V78.1064H47.5824V70.7144C47.5824 69.5304 47.2864 68.6264 46.6944 68.0024C46.1024 67.3624 45.2944 67.0424 44.2704 67.0424C43.2464 67.0424 42.4304 67.3624 41.8224 68.0024C41.2304 68.6264 40.9344 69.5304 40.9344 70.7144V78.1064H38.1984V64.8824H40.9344V66.3944C41.3824 65.8504 41.9504 65.4264 42.6384 65.1224C43.3424 64.8184 44.0864 64.6664 44.8704 64.6664ZM56.2084 75.8744H62.2084V78.1064H53.0404V75.8744L59.0644 67.1144H53.0404V64.8824H62.2084V67.1144L56.2084 75.8744ZM70.8173 78.3224C69.5693 78.3224 68.4413 78.0424 67.4333 77.4824C66.4253 76.9064 65.6333 76.1064 65.0573 75.0824C64.4813 74.0424 64.1933 72.8424 64.1933 71.4824C64.1933 70.1384 64.4893 68.9464 65.0813 67.9064C65.6733 66.8664 66.4813 66.0664 67.5053 65.5064C68.5293 64.9464 69.6733 64.6664 70.9373 64.6664C72.2013 64.6664 73.3453 64.9464 74.3693 65.5064C75.3933 66.0664 76.2013 66.8664 76.7933 67.9064C77.3853 68.9464 77.6813 70.1384 77.6813 71.4824C77.6813 72.8264 77.3773 74.0184 76.7693 75.0584C76.1613 76.0984 75.3293 76.9064 74.2733 77.4824C73.2333 78.0424 72.0813 78.3224 70.8173 78.3224ZM70.8173 75.9464C71.5213 75.9464 72.1773 75.7784 72.7853 75.4424C73.4093 75.1064 73.9133 74.6024 74.2973 73.9304C74.6813 73.2584 74.8733 72.4424 74.8733 71.4824C74.8733 70.5224 74.6893 69.7144 74.3213 69.0584C73.9533 68.3864 73.4653 67.8824 72.8573 67.5464C72.2493 67.2104 71.5933 67.0424 70.8893 67.0424C70.1853 67.0424 69.5293 67.2104 68.9213 67.5464C68.3293 67.8824 67.8573 68.3864 67.5053 69.0584C67.1533 69.7144 66.9773 70.5224 66.9773 71.4824C66.9773 72.9064 67.3373 74.0104 68.0573 74.7944C68.7933 75.5624 69.7133 75.9464 70.8173 75.9464ZM92.3619 64.8824V78.1064H89.6259V76.5464C89.1939 77.0904 88.6259 77.5224 87.9219 77.8424C87.2339 78.1464 86.4979 78.2984 85.7139 78.2984C84.6739 78.2984 83.7379 78.0824 82.9059 77.6504C82.0899 77.2184 81.4419 76.5784 80.9619 75.7304C80.4979 74.8824 80.2659 73.8584 80.2659 72.6584V64.8824H82.9779V72.2504C82.9779 73.4344 83.2739 74.3464 83.8659 74.9864C84.4579 75.6104 85.2659 75.9224 86.2899 75.9224C87.3139 75.9224 88.1219 75.6104 88.7139 74.9864C89.3219 74.3464 89.6259 73.4344 89.6259 72.2504V64.8824H92.3619Z" fill="#082F49"/>
</svg>
